<svg width="450" height="251" viewBox="0 0 450 251" fill="none" xmlns="http://www.w3.org/2000/svg">
<path d="M444.569 1.30997L444.76 0.847832L444.569 1.30997C446.292 2.02147 447.673 3.14877 448.531 4.51336L448.531 4.51336C448.997 5.25504 449.245 6.13058 449.372 7.38706C449.499 8.65332 449.5 10.2576 449.5 12.446L449.5 238.554C449.5 240.742 449.499 242.347 449.372 243.613C449.245 244.869 448.997 245.745 448.531 246.487C447.673 247.851 446.292 248.979 444.569 249.69C443.615 250.084 442.492 250.291 440.916 250.395C439.336 250.5 437.34 250.5 434.646 250.5L346.323 250.5C346.002 244.238 339.676 239.396 332.137 239.396C324.598 239.396 318.272 244.238 317.95 250.5L15.3542 250.5C12.6605 250.5 10.6647 250.5 9.08493 250.395C7.50861 250.291 6.38535 250.084 5.43118 249.69C3.70819 248.979 2.32825 247.851 1.46841 246.486C1.00269 245.745 0.7547 244.869 0.628174 243.613C0.50061 242.347 0.5 240.742 0.5 238.554L0.5 12.446C0.5 10.2576 0.50061 8.65331 0.628174 7.38703C0.75473 6.13053 1.00281 5.25494 1.46875 4.51325C2.32861 3.14842 3.70837 2.02132 5.43115 1.30999C6.38535 0.91592 7.50861 0.709289 9.08493 0.604886C10.6647 0.500256 12.6605 0.5 15.3542 0.5L317.95 0.5C318.272 6.76157 324.598 11.6043 332.137 11.6043C339.676 11.6043 346.002 6.76157 346.323 0.5L434.646 0.5C437.34 0.5 439.336 0.500256 440.916 0.604886C442.492 0.70929 443.615 0.915921 444.569 1.30997ZM323.882 33.026C323.882 36.8664 327.681 39.8115 332.137 39.8115C336.592 39.8115 340.391 36.8664 340.391 33.026C340.391 29.1853 336.592 26.2405 332.137 26.2405C327.681 26.2405 323.882 29.1853 323.882 33.026ZM323.882 55.1026C323.882 58.9433 327.681 61.8881 332.137 61.8881C336.592 61.8881 340.391 58.9433 340.391 55.1026C340.391 51.2622 336.592 48.3171 332.137 48.3171C327.681 48.3171 323.882 51.2622 323.882 55.1026ZM323.882 78.5686C323.882 82.409 327.681 85.3538 332.137 85.3538C336.592 85.3538 340.391 82.409 340.391 78.5686C340.391 74.7279 336.592 71.7831 332.137 71.7831C327.681 71.7831 323.882 74.7279 323.882 78.5686ZM323.882 102.034C323.882 105.875 327.681 108.82 332.137 108.82C336.592 108.82 340.391 105.875 340.391 102.034C340.391 98.1935 336.592 95.2487 332.137 95.2487C327.681 95.2487 323.882 98.1935 323.882 102.034ZM323.882 125.5C323.882 129.341 327.681 132.285 332.137 132.285C336.592 132.285 340.391 129.341 340.391 125.5C340.391 121.659 336.592 118.715 332.137 118.715C327.681 118.715 323.882 121.659 323.882 125.5ZM323.882 148.966C323.882 152.806 327.681 155.751 332.137 155.751C336.592 155.751 340.391 152.806 340.391 148.966C340.391 145.125 336.592 142.18 332.137 142.18C327.681 142.18 323.882 145.125 323.882 148.966ZM323.882 172.431C323.882 176.272 327.681 179.217 332.137 179.217C336.592 179.217 340.391 176.272 340.391 172.431C340.391 168.591 336.592 165.646 332.137 165.646C327.681 165.646 323.882 168.591 323.882 172.431ZM323.882 195.897C323.882 199.738 327.681 202.683 332.137 202.683C336.592 202.683 340.391 199.738 340.391 195.897C340.391 192.057 336.592 189.112 332.137 189.112C327.681 189.112 323.882 192.057 323.882 195.897ZM323.882 219.363C323.882 223.204 327.681 226.149 332.137 226.149C336.592 226.149 340.391 223.204 340.391 219.363C340.391 215.523 336.592 212.578 332.137 212.578C327.681 212.578 323.882 215.523 323.882 219.363Z" fill="#FEFEFE" stroke="#707070"/>
</svg>
