<svg width="810" height="406" viewBox="0 0 810 406" fill="none" xmlns="http://www.w3.org/2000/svg">
<g clip-path="url(#clip0_721_6155)">
<path d="M266.749 406C242.308 406 217.903 405.563 193.535 404.688C158.716 403.437 122.712 402.145 89.247 383.586C65.8368 370.605 45.1035 349.778 29.2891 323.355C18.719 305.446 10.9685 286.017 6.30991 265.75C-2.38016 228.851 -2.08416 190.406 7.173 153.645C10.4171 141.042 14.8892 128.786 20.5253 117.056C44.9299 66.5245 89.4421 32.6044 142.649 23.9934C143.088 23.9364 143.533 23.9269 143.974 23.9651C144.213 23.9779 144.452 23.9916 144.695 23.9815L145.008 23.882C145.811 23.6031 146.635 23.3916 147.473 23.2496C229.532 11.0348 316.28 35.7495 398.333 94.72C461.776 140.322 545.856 164.878 655.378 169.791L656.933 169.872C687.422 171.624 716.913 184.192 742.222 206.22C767.204 227.961 785.96 256.969 796.464 290.107C797.756 294.148 798.94 298.353 799.983 302.607C800.954 306.56 800.885 310.697 799.784 314.615C798.682 318.534 796.585 322.1 793.696 324.968V324.976L793.423 325.257C792.767 325.909 792.076 326.535 791.369 327.118L790.539 327.803C783.54 333.568 778.012 338.122 771.395 341.659C766.983 344.002 762.29 345.773 757.429 346.931C730.74 353.437 703.637 359.469 676.872 364.861C624.894 375.34 571.546 383.984 518.31 390.553C434.852 400.843 350.84 406.001 266.749 406ZM143.352 25.7548C143.188 25.7533 143.025 25.7643 142.863 25.788C90.1539 34.3185 46.0631 67.9056 21.9004 117.936C16.32 129.551 11.8921 141.685 8.68026 154.164C-0.492549 190.598 -0.784861 228.702 7.82791 265.273C12.4409 285.346 20.1162 304.589 30.5843 322.327C46.2439 348.491 66.7652 369.109 89.9299 381.954C123.094 400.346 158.929 401.633 193.585 402.876C301.974 406.748 410.499 402.026 518.142 388.752C571.343 382.187 624.657 373.549 676.601 363.076C703.347 357.689 730.432 351.661 757.103 345.159C761.846 344.03 766.426 342.302 770.733 340.015C777.216 336.55 782.691 332.039 789.623 326.329L790.454 325.646C791.061 325.144 791.657 324.608 792.227 324.051L792.391 323.879C798.088 318.138 800.303 310.564 798.469 303.099V303.098C797.437 298.89 796.265 294.73 794.987 290.731C773.529 223.035 718.019 175.194 656.858 171.682L655.311 171.601C605.283 169.356 561.504 163.138 521.48 152.59C473.7 139.999 431.987 121.045 397.499 96.2563C315.759 37.5118 229.374 12.8891 147.673 25.0459C146.91 25.1775 146.159 25.3722 145.428 25.6279L144.864 25.7857C144.543 25.8001 144.222 25.7962 143.902 25.7742C143.713 25.7645 143.53 25.7548 143.352 25.7548Z" fill="#AC002C"/>
<path d="M253.011 132.28C250.748 130.109 248.434 118.005 245.545 116.776C247.704 121.548 246.137 122.811 246.125 128.048C246.152 131.021 245.805 133.986 245.091 136.873H196.157V98.6882C196.157 95.2572 196.833 91.8598 198.146 88.6899C199.459 85.52 201.384 82.6398 203.81 80.2137C206.236 77.7876 209.117 75.8631 212.287 74.5501C215.457 73.2372 218.855 72.5615 222.287 72.5616C223.596 72.5871 224.898 72.7776 226.16 73.1285C230.366 74.264 234.199 76.4854 237.276 79.5698C240.352 82.6543 242.563 86.4935 243.687 90.7022C247.418 104.336 253.351 127.03 253.011 132.28Z" fill="#2F2E41"/>
<path d="M199.028 179.255L199.052 149.492L181.555 151.055L187.73 169.826L184.84 217.009C183.438 217.324 182.158 218.039 181.156 219.068C180.154 220.098 179.473 221.396 179.197 222.806C178.92 224.215 179.059 225.675 179.598 227.006C180.137 228.338 181.051 229.484 182.23 230.305C183.409 231.126 184.801 231.587 186.237 231.63C187.673 231.674 189.09 231.298 190.317 230.55C191.543 229.802 192.525 228.713 193.143 227.417C193.761 226.12 193.989 224.672 193.798 223.248L199.028 179.255Z" fill="#FFB6B6"/>
<path d="M233.463 391.942L240.532 391.941L243.895 364.678H233.461L233.463 391.942Z" fill="#FFB6B6"/>
<path d="M231.069 388.455L242.244 387.788V392.575L252.868 399.912C253.393 400.274 253.788 400.794 253.996 401.397C254.204 402 254.214 402.654 254.024 403.262C253.834 403.871 253.455 404.403 252.941 404.781C252.427 405.159 251.806 405.363 251.169 405.363H237.865L235.571 400.627L234.676 405.363H229.66L231.069 388.455Z" fill="#2F2E41"/>
<path d="M192.589 391.942L199.658 391.941L203.021 364.678H192.588L192.589 391.942Z" fill="#FFB6B6"/>
<path d="M190.195 388.455L201.37 387.788V392.575L211.994 399.912C212.519 400.274 212.914 400.794 213.122 401.397C213.33 402 213.34 402.654 213.15 403.262C212.96 403.871 212.581 404.403 212.067 404.781C211.553 405.159 210.932 405.363 210.294 405.363H196.991L194.697 400.627L193.802 405.363H188.786L190.195 388.455Z" fill="#2F2E41"/>
<path d="M227.168 117.35L212.524 117.637L202.187 128.547L193.9 129.763C190.151 130.312 186.704 132.132 184.136 134.917C181.568 137.703 180.034 141.285 179.79 145.066L181.226 152.951H189.84L194.823 182.207C192.885 187.144 192.754 191.041 196.731 192.572L209.078 215.827L245.545 199.462C247.394 196.283 247.987 193.09 246.097 189.985L248.704 145.199H257.469C257.469 136.823 254.636 129.761 246.31 128.829C243.004 128.472 239.682 128.282 236.357 128.26L227.168 117.35Z" fill="#E6E6E6"/>
<path d="M245.545 199.463C245.545 199.463 209.94 205.779 196.731 192.572C196.731 192.572 195.39 194.848 193.37 198.623C192.788 199.709 191.666 200.444 190.988 201.759C190.372 202.954 188.788 204.424 188.117 205.779C187.577 206.87 188.443 208.295 187.882 209.473C181.117 223.659 173.214 243.67 174.909 256.884C176.001 265.405 178.258 285.233 180.635 306.53C180.82 308.194 179.316 310.331 179.503 312.008C179.679 313.59 181.546 314.71 181.722 316.296C181.838 317.348 180.535 318.422 180.651 319.473C180.779 320.626 182.327 321.757 182.454 322.906C185.71 352.311 188.691 379.765 188.691 379.765H205.345L208.488 317.063L205.92 294.208L211.95 247.983L220.277 291.911L221.348 316.633L230.148 380.914H245.545V318.686L246.694 315.453L245.545 311.307L246.694 306.84L245.545 301.975V199.463Z" fill="#2F2E41"/>
<path d="M231.663 108.859C229.395 111.872 226.167 114.023 222.513 114.957C218.859 115.891 214.996 115.553 211.559 113.999C208.123 112.444 205.318 109.766 203.607 106.405C201.897 103.043 201.382 99.2 202.147 95.5072C202.913 91.8144 204.914 88.4925 207.82 86.0884C210.726 83.6844 214.364 82.3416 218.136 82.2813C221.907 82.221 225.586 83.4466 228.568 85.7564C231.55 88.0663 233.655 91.3225 234.539 94.9889C234.587 95.1878 234.627 95.3857 234.666 95.591C235.133 97.8891 235.106 100.26 234.589 102.547C234.071 104.834 233.074 106.986 231.663 108.859Z" fill="#FFB6B6"/>
<path d="M228.202 99.3887C227.85 97.6216 226.959 96.0069 225.652 94.7663C225.781 96.4597 225.546 98.1612 224.963 99.7563C220.597 100.143 216.212 99.2742 212.323 97.2527C209.394 95.266 205.667 95.4382 201.326 97.2527C201.325 95.1412 201.741 93.0504 202.549 91.0996C203.357 89.1488 204.541 87.3763 206.035 85.8833C207.528 84.3903 209.301 83.206 211.252 82.3981C213.203 81.5902 215.294 81.1745 217.405 81.1747H220.277C224.541 81.1755 228.631 82.8697 231.646 85.8847C234.662 88.8998 236.356 92.9888 236.357 97.2527C233.707 98.2031 230.978 98.9179 228.202 99.3887Z" fill="#2F2E41"/>
<path d="M102.58 304.308C128.093 304.308 148.775 283.629 148.775 258.119C148.775 232.609 128.093 211.929 102.58 211.929C77.0667 211.929 56.3845 232.609 56.3845 258.119C56.3845 283.629 77.0667 304.308 102.58 304.308Z" fill="#F0AFBF"/>
<path d="M396.961 92.3793C422.474 92.3793 443.156 71.6995 443.156 46.1897C443.156 20.6798 422.474 0 396.961 0C371.448 0 350.766 20.6798 350.766 46.1897C350.766 71.6995 371.448 92.3793 396.961 92.3793Z" fill="#F0AFBF"/>
<path d="M763.805 311.554C789.318 311.554 810 290.874 810 265.364C810 239.854 789.318 219.174 763.805 219.174C738.292 219.174 717.61 239.854 717.61 265.364C717.61 290.874 738.292 311.554 763.805 311.554Z" fill="#F0AFBF"/>
<path d="M480.293 51.2269V155.965C480.293 158.141 479.435 160.228 477.905 161.775C476.374 163.321 474.295 164.202 472.12 164.224C472.09 164.227 472.06 164.229 472.029 164.228H459.838C450.083 164.228 440.727 160.353 433.83 153.456C426.932 146.56 423.057 137.205 423.057 127.452V51.2268C423.057 49.0354 423.927 46.9337 425.477 45.3841C427.027 43.8345 429.129 42.964 431.321 42.964H436.261C433.972 49.6394 465.033 52.4499 466.739 42.964H472.029C474.221 42.964 476.323 43.8346 477.873 45.3842C479.423 46.9337 480.293 49.0354 480.293 51.2269Z" fill="#E8F4D8"/>
<path d="M444.113 35.132C444.114 34.8449 444.228 34.5697 444.431 34.3667C444.634 34.1637 444.909 34.0495 445.196 34.0491H452.561C452.848 34.05 453.122 34.1644 453.325 34.3674C453.527 34.5704 453.641 34.8454 453.641 35.132C453.641 35.4187 453.527 35.6936 453.325 35.8966C453.122 36.0996 452.848 36.2141 452.561 36.2149H445.196C444.909 36.2145 444.634 36.1004 444.431 35.8974C444.228 35.6944 444.114 35.4191 444.113 35.132Z" fill="#3F3D56"/>
<path d="M474.559 177.513H427.988C424.374 177.509 420.91 176.072 418.355 173.518C415.8 170.963 414.363 167.499 414.359 163.886V90.6701C414.103 90.4865 413.895 90.2445 413.751 89.9644C413.608 89.6842 413.533 89.3739 413.533 89.0591V81.6956C413.533 81.3808 413.608 81.0705 413.751 80.7904C413.895 80.5103 414.103 80.2685 414.359 80.085V78.1087C414.103 77.9251 413.895 77.6833 413.751 77.4032C413.608 77.1231 413.533 76.8128 413.533 76.4981V69.1341C413.533 68.8194 413.608 68.5091 413.751 68.229C413.895 67.9489 414.103 67.7071 414.359 67.5235V63.9517C414.043 63.7821 413.779 63.5299 413.596 63.2221C413.412 62.9143 413.316 62.5624 413.317 62.204V54.8405C413.316 54.4821 413.412 54.1301 413.596 53.8222C413.779 53.5143 414.043 53.262 414.359 53.0923V43.305C414.363 39.6922 415.8 36.2285 418.355 33.6739C420.91 31.1193 424.374 29.6823 427.987 29.6783H474.559C478.173 29.6824 481.637 31.1193 484.192 33.674C486.747 36.2286 488.184 39.6923 488.188 43.305V64.6393C488.433 64.7929 488.636 65.0062 488.776 65.2594C488.916 65.5126 488.99 65.7973 488.99 66.0867V80.1274C488.99 80.417 488.916 80.7017 488.776 80.955C488.636 81.2082 488.433 81.4216 488.188 81.5753V163.886C488.184 167.499 486.747 170.963 484.192 173.517C481.637 176.072 478.173 177.509 474.559 177.513ZM427.987 31.4896C424.854 31.4931 421.851 32.7391 419.635 34.9542C417.42 37.1692 416.174 40.1724 416.17 43.305V54.6331L415.299 54.6667C415.254 54.6683 415.211 54.6873 415.179 54.7196C415.147 54.7519 415.129 54.7952 415.128 54.8405V62.2039C415.129 62.2492 415.147 62.2924 415.179 62.3247C415.211 62.357 415.254 62.376 415.299 62.3778L416.17 62.4109V68.7953L415.481 68.9651C415.443 68.9743 415.409 68.9959 415.384 69.0265C415.36 69.057 415.346 69.0949 415.345 69.1341V76.4981C415.346 76.5373 415.36 76.5751 415.384 76.6057C415.409 76.6362 415.443 76.6578 415.481 76.667L416.17 76.8368V81.3568L415.481 81.5266C415.443 81.5358 415.409 81.5574 415.384 81.5879C415.36 81.6185 415.346 81.6563 415.345 81.6955V89.0591C415.346 89.0984 415.36 89.1363 415.384 89.1669C415.409 89.1975 415.443 89.2192 415.481 89.2284L416.17 89.3982V163.886C416.174 167.019 417.42 170.022 419.635 172.237C421.851 174.452 424.854 175.698 427.987 175.702H474.559C477.692 175.698 480.696 174.452 482.911 172.237C485.127 170.022 486.373 167.019 486.376 163.886V80.0244H487.179V66.1902H486.376V43.305C486.373 40.1725 485.127 37.1692 482.911 34.9542C480.696 32.7392 477.692 31.4932 474.559 31.4896L427.987 31.4896Z" fill="#3F3D56"/>
<path d="M456.676 36.2149C457.274 36.2149 457.759 35.7301 457.759 35.132C457.759 34.534 457.274 34.0491 456.676 34.0491C456.078 34.0491 455.593 34.534 455.593 35.132C455.593 35.7301 456.078 36.2149 456.676 36.2149Z" fill="#3F3D56"/>
<path d="M221.085 244.898H99.9021C98.1812 244.894 96.532 244.208 95.315 242.992C94.0981 241.775 93.4123 240.126 93.4077 238.406V179.365C93.4121 177.644 94.0976 175.995 95.3144 174.779C96.5312 173.562 98.1803 172.876 99.9012 172.872H221.084C222.805 172.876 224.454 173.561 225.671 174.778C226.888 175.995 227.574 177.644 227.578 179.364V238.405C227.574 240.125 226.888 241.774 225.672 242.991C224.455 244.208 222.806 244.894 221.085 244.898Z" fill="#AC002C"/>
<path d="M221.085 244.898H99.9021C98.1812 244.894 96.532 244.208 95.315 242.992C94.0981 241.775 93.4123 240.126 93.4077 238.406V179.365C93.4121 177.644 94.0976 175.995 95.3144 174.779C96.5312 173.562 98.1803 172.876 99.9012 172.872H221.084C222.805 172.876 224.454 173.561 225.671 174.778C226.888 175.995 227.574 177.644 227.578 179.364V238.405C227.574 240.125 226.888 241.774 225.672 242.991C224.455 244.208 222.806 244.894 221.085 244.898ZM99.9021 174.683C98.6611 174.687 97.472 175.181 96.5945 176.059C95.7171 176.936 95.2227 178.125 95.2192 179.366V238.405C95.2228 239.646 95.7175 240.834 96.5951 241.712C97.4727 242.589 98.662 243.084 99.903 243.087H221.083C222.324 243.084 223.514 242.589 224.391 241.711C225.269 240.834 225.763 239.645 225.767 238.404V179.365C225.763 178.124 225.268 176.935 224.391 176.058C223.513 175.181 222.324 174.686 221.083 174.683L99.9021 174.683Z" fill="#3F3D56"/>
<path d="M166.988 236.173C143.088 236.173 118.167 235.945 108.869 235.797C107.646 235.771 106.481 235.269 105.623 234.397C104.765 233.524 104.282 232.351 104.277 231.128V182.256C104.278 181.818 104.452 181.398 104.761 181.087C105.07 180.777 105.49 180.602 105.928 180.601H215.054C215.492 180.601 215.912 180.775 216.222 181.084C216.532 181.394 216.707 181.813 216.709 182.251V215.41C216.689 220.823 214.547 226.012 210.744 229.864C206.942 233.717 201.78 235.925 196.368 236.016C187.702 236.129 177.44 236.173 166.988 236.173Z" fill="#E8F4D8"/>
<path d="M208.576 212.364H109.973C109.147 212.361 108.342 212.105 107.667 211.629C106.993 211.154 106.481 210.482 106.201 209.705L95.0406 178.399C94.8255 177.795 94.7585 177.149 94.8451 176.514C94.9318 175.878 95.1695 175.273 95.5385 174.749C95.9075 174.225 96.3969 173.797 96.9655 173.501C97.5342 173.206 98.1655 173.051 98.8066 173.049L222.059 172.878C222.645 172.877 223.224 173.005 223.755 173.252C224.286 173.5 224.757 173.861 225.133 174.309C225.51 174.758 225.783 175.284 225.934 175.85C226.085 176.416 226.11 177.009 226.008 177.585L226.103 177.626L225.749 178.451L225.746 178.46L212.254 209.937C211.947 210.657 211.434 211.272 210.78 211.703C210.126 212.135 209.36 212.364 208.576 212.364ZM222.065 174.689L98.8101 174.861C98.4589 174.861 98.1131 174.946 97.8015 175.108C97.49 175.27 97.2219 175.505 97.0197 175.792C96.8176 176.079 96.6873 176.41 96.6398 176.758C96.5923 177.106 96.629 177.46 96.7468 177.791L107.907 209.096C108.06 209.521 108.341 209.889 108.711 210.15C109.081 210.411 109.522 210.551 109.974 210.552H208.576C209.005 210.553 209.424 210.427 209.782 210.191C210.14 209.955 210.421 209.618 210.589 209.224L224.081 177.746C224.224 177.412 224.282 177.048 224.249 176.687C224.217 176.326 224.096 175.978 223.896 175.675C223.696 175.372 223.424 175.123 223.105 174.951C222.785 174.779 222.428 174.689 222.065 174.689Z" fill="#3F3D56"/>
<path d="M160.309 219.178C164.573 219.178 168.03 215.722 168.03 211.458C168.03 207.195 164.573 203.738 160.309 203.738C156.045 203.738 152.588 207.195 152.588 211.458C152.588 215.722 156.045 219.178 160.309 219.178Z" fill="#AC002C"/>
<path d="M451.973 152.158C456.237 152.158 459.694 148.702 459.694 144.438C459.694 140.174 456.237 136.718 451.973 136.718C447.709 136.718 444.252 140.174 444.252 144.438C444.252 148.702 447.709 152.158 451.973 152.158Z" fill="#AC002C"/>
<path d="M743.995 256.416L723.37 236.056C722.366 235.057 721.175 234.266 719.865 233.729C718.555 233.191 717.151 232.917 715.735 232.923H715.662C714.235 232.927 712.823 233.214 711.508 233.767C710.192 234.321 709 235.13 707.999 236.147C703.388 240.813 700.765 247.086 700.682 253.646C700.599 260.206 703.063 266.542 707.555 271.324C707.773 271.559 707.999 271.785 708.226 272.012C709.48 273.259 710.865 274.367 712.356 275.318C716.433 277.952 721.188 279.345 726.043 279.33H726.196C729.528 279.318 732.825 278.647 735.896 277.353C738.966 276.06 741.75 274.17 744.086 271.794C746.11 269.741 747.237 266.969 747.22 264.087C747.203 261.204 746.043 258.445 743.995 256.416ZM742.8 270.517C738.97 274.375 733.928 276.794 728.523 277.368C723.118 277.942 717.68 276.636 713.126 273.669C711.823 272.807 710.607 271.821 709.494 270.726C705.05 266.337 702.531 260.363 702.492 254.118C702.453 247.873 704.897 241.868 709.285 237.424C710.12 236.574 711.115 235.898 712.213 235.437C713.31 234.975 714.489 234.736 715.68 234.734H715.735C716.914 234.73 718.082 234.958 719.173 235.406C720.265 235.853 721.257 236.511 722.093 237.342L742.718 257.711C744.425 259.4 745.393 261.696 745.408 264.097C745.424 266.498 744.485 268.807 742.8 270.517Z" fill="#3F3D56"/>
<path d="M676.324 189.595L655.699 169.226C653.669 167.212 650.923 166.085 648.063 166.093H648C646.571 166.098 645.157 166.387 643.84 166.942C642.524 167.497 641.33 168.307 640.328 169.326C636.515 173.197 634.043 178.188 633.274 183.566C632.505 188.945 633.478 194.428 636.052 199.213L636.062 199.222C637.123 201.179 638.442 202.986 639.984 204.593C640.156 204.792 640.355 204.991 640.554 205.191C645.291 209.892 651.698 212.523 658.371 212.509H658.534C661.867 212.495 665.163 211.821 668.234 210.526C671.304 209.231 674.088 207.341 676.423 204.964C677.426 203.949 678.219 202.745 678.757 201.423C679.295 200.101 679.567 198.686 679.557 197.259C679.548 195.832 679.258 194.42 678.703 193.105C678.148 191.79 677.34 190.598 676.324 189.595ZM675.128 203.696C672.96 205.902 670.377 207.656 667.527 208.857C664.677 210.059 661.618 210.684 658.525 210.697H658.371C653.726 210.695 649.186 209.321 645.321 206.745C641.456 204.17 638.439 200.51 636.649 196.225C634.859 191.939 634.376 187.22 635.261 182.662C636.146 178.103 638.359 173.907 641.623 170.603C643.312 168.896 645.609 167.928 648.01 167.913C650.411 167.898 652.721 168.836 654.431 170.521L675.056 190.881C676.762 192.572 677.728 194.871 677.741 197.274C677.755 199.676 676.815 201.986 675.128 203.696Z" fill="#3F3D56"/>
<path d="M745.314 262.817L722.575 240.362C721.084 238.893 719.071 238.075 716.978 238.088C714.885 238.101 712.882 238.944 711.409 240.431C709.567 242.292 708.11 244.498 707.12 246.922C706.131 249.347 705.63 251.942 705.645 254.561C705.659 257.179 706.19 259.769 707.207 262.182C708.223 264.595 709.705 266.785 711.569 268.625C713.432 270.465 715.639 271.919 718.065 272.906C720.491 273.892 723.088 274.391 725.706 274.373C728.325 274.355 730.915 273.821 733.327 272.802C735.739 271.783 737.927 270.299 739.765 268.434L745.314 262.817Z" fill="#AC002C"/>
<path d="M677.646 195.992L654.908 173.537C653.417 172.068 651.404 171.25 649.311 171.263C647.217 171.276 645.215 172.119 643.742 173.606C641.9 175.467 640.442 177.673 639.453 180.098C638.464 182.522 637.962 185.118 637.977 187.736C637.992 190.355 638.523 192.944 639.539 195.358C640.556 197.771 642.038 199.96 643.901 201.8C645.764 203.64 647.972 205.095 650.398 206.081C652.824 207.067 655.42 207.566 658.039 207.548C660.658 207.53 663.247 206.997 665.66 205.978C668.072 204.959 670.26 203.474 672.098 201.609L677.646 195.992Z" fill="#AC002C"/>
<path d="M720.327 276.803L719.784 278.234C717.229 277.265 714.753 276.293 712.356 275.317C669.893 257.992 649.621 237.714 636.062 199.222L636.052 199.213C635.409 197.402 634.784 195.548 634.177 193.652L635.609 193.19C636.087 195.014 636.787 196.772 637.692 198.425C638.435 200.536 639.199 202.591 639.984 204.593C652.728 237.08 671.523 255.646 707.555 271.323C709.367 272.111 711.224 272.893 713.126 273.669C715.335 275.108 717.769 276.167 720.327 276.803Z" fill="#3F3D56"/>
<path d="M655.321 210.86L654.048 212.149L701.092 258.608L702.366 257.319L655.321 210.86Z" fill="#3F3D56"/>
<path d="M257.031 172.364L257.055 142.601L239.557 144.164L245.732 162.936L223.317 196.912C221.915 197.226 220.635 197.942 219.633 198.971C218.631 200 217.95 201.299 217.674 202.708C217.397 204.118 217.536 205.577 218.075 206.909C218.613 208.241 219.528 209.387 220.707 210.208C221.885 211.029 223.278 211.489 224.714 211.532C226.15 211.576 227.567 211.201 228.793 210.453C230.02 209.705 231.002 208.616 231.62 207.319C232.238 206.023 232.466 204.574 232.275 203.151L257.031 172.364Z" fill="#FFB6B6"/>
</g>
<defs>
<clipPath id="clip0_721_6155">
<rect width="810" height="406" fill="white"/>
</clipPath>
</defs>
</svg>
