<svg width="471" height="302" viewBox="0 0 471 302" fill="none" xmlns="http://www.w3.org/2000/svg">
<g clip-path="url(#clip0_898_1085)">
<path d="M412.735 278.837C427.882 263.72 427.882 239.21 412.735 224.093C397.588 208.976 373.031 208.976 357.884 224.093C342.738 239.21 342.738 263.72 357.884 278.837C373.031 293.954 397.588 293.954 412.735 278.837Z" fill="#2F2E41"/>
<path d="M385.094 255.026C392.242 253.447 396.754 246.383 395.172 239.249C393.59 232.115 386.512 227.612 379.364 229.191C372.216 230.771 367.705 237.834 369.287 244.968C370.869 252.102 377.946 256.605 385.094 255.026Z" fill="white"/>
<path d="M377.815 242.998C380.198 242.471 381.702 240.117 381.174 237.739C380.647 235.361 378.288 233.86 375.905 234.386C373.522 234.913 372.018 237.267 372.546 239.645C373.073 242.023 375.432 243.524 377.815 242.998Z" fill="#3F3D56"/>
<path d="M383.778 225.296C367.916 225.266 356.781 222.439 356.808 208.096C356.834 193.754 369.714 182.15 385.576 182.179C401.439 182.209 414.276 193.859 414.249 208.202C414.223 222.545 399.64 225.325 383.778 225.296Z" fill="#92C054"/>
<path d="M446.101 257.935C441.551 273.688 428.266 284.715 414.409 294.083C412.474 295.391 410.538 296.669 408.602 297.917C408.589 297.923 408.575 297.935 408.562 297.941C408.469 298.001 408.376 298.061 408.289 298.121C407.889 298.378 407.489 298.635 407.093 298.889L407.311 298.987C407.311 298.987 407.525 299.1 407.291 299.005C407.221 298.976 407.148 298.95 407.079 298.921C399.028 295.68 390.835 292.201 384.665 286.13C378.265 279.826 374.525 269.939 377.991 261.657C378.446 260.573 379.022 259.542 379.706 258.584C379.987 258.183 380.29 257.799 380.605 257.422C382.517 255.093 385.015 253.315 387.844 252.27C390.672 251.224 393.729 250.95 396.699 251.474C399.669 251.999 402.445 253.303 404.743 255.254C407.04 257.204 408.776 259.73 409.771 262.572C410.789 253.111 402.973 245.186 395.45 239.339C387.925 233.495 379.374 227.13 377.919 217.722C377.107 212.487 378.931 207.415 382.253 203.342C382.356 203.219 382.459 203.095 382.565 202.975C386.609 198.232 392.297 195.186 398.493 194.446C410.032 193.249 421.241 199.345 429.624 207.352C443.116 220.236 451.273 240.024 446.101 257.935Z" fill="#AC002C"/>
<path d="M424.411 237.331C426.626 240.77 428.326 244.512 429.458 248.441C430.416 251.952 430.842 255.587 430.723 259.224C430.414 266.708 428.309 274.008 424.584 280.512C421.779 285.445 418.36 290.005 414.408 294.083C412.474 295.391 410.538 296.669 408.602 297.917C408.589 297.923 408.575 297.935 408.562 297.941C408.469 298.001 408.375 298.061 408.289 298.121C407.889 298.378 407.489 298.635 407.093 298.889C407.093 298.889 407.524 299.1 407.291 299.005C407.221 298.976 407.148 298.95 407.079 298.921C407.8 293.017 407.093 287.026 405.017 281.451C402.941 275.875 399.557 270.878 395.147 266.877C390.727 262.937 385.436 260.096 379.706 258.585C379.987 258.183 380.29 257.799 380.605 257.422C382.818 258.041 384.972 258.854 387.041 259.852C394.439 263.398 400.496 269.226 404.316 276.475C407.744 283.056 409.219 290.478 408.569 297.867C408.9 297.568 409.231 297.263 409.552 296.96C415.669 291.268 421.103 284.734 424.78 277.193C427.971 270.807 429.538 263.737 429.346 256.604C429.046 248.826 425.941 241.622 421.445 235.35C416.518 228.659 410.697 222.672 404.145 217.555C397.541 212.277 390.315 207.824 382.628 204.297C382.455 204.217 382.319 204.073 382.249 203.895C382.18 203.717 382.181 203.519 382.253 203.342C382.304 203.184 382.416 203.052 382.564 202.975C382.641 202.942 382.724 202.927 382.807 202.93C382.89 202.934 382.971 202.956 383.044 202.995C383.993 203.431 384.936 203.873 385.871 204.334C393.658 208.176 400.937 212.968 407.541 218.601C413.919 224.028 419.924 230.229 424.411 237.331Z" fill="white"/>
<path d="M66.385 301.595C71.8079 301.595 76.2041 299.949 76.2041 297.92C76.2041 295.89 71.8079 294.245 66.385 294.245C60.9621 294.245 56.5659 295.89 56.5659 297.92C56.5659 299.949 60.9621 301.595 66.385 301.595Z" fill="#2F2E41"/>
<path d="M89.9509 301.105C95.3738 301.105 99.77 299.459 99.77 297.43C99.77 295.4 95.3738 293.755 89.9509 293.755C84.528 293.755 80.1318 295.4 80.1318 297.43C80.1318 299.459 84.528 301.105 89.9509 301.105Z" fill="#2F2E41"/>
<path d="M121.235 239.336C130.514 233.997 136.675 227.313 134.996 224.405C133.317 221.498 124.433 223.469 115.154 228.808C105.876 234.147 99.7148 240.831 101.394 243.738C103.073 246.645 111.957 244.674 121.235 239.336Z" fill="#2F2E41"/>
<path d="M112.524 252.426C115.956 231.324 101.597 211.441 80.4527 208.016C59.3087 204.592 39.3866 218.923 35.9554 240.025C32.5242 261.128 46.8833 281.011 68.0272 284.435C89.1712 287.86 109.093 273.529 112.524 252.426Z" fill="#2F2E41"/>
<path d="M68.3488 276.605H56.5659V297.675H68.3488V276.605Z" fill="#2F2E41"/>
<path d="M91.9147 276.605H80.1318V297.675H91.9147V276.605Z" fill="#2F2E41"/>
<path d="M75.2221 249.656C82.543 249.656 88.4778 243.732 88.4778 236.426C88.4778 229.119 82.543 223.196 75.2221 223.196C67.9011 223.196 61.9663 229.119 61.9663 236.426C61.9663 243.732 67.9011 249.656 75.2221 249.656Z" fill="white"/>
<path d="M75.2218 240.836C77.6621 240.836 79.6404 238.861 79.6404 236.426C79.6404 233.99 77.6621 232.016 75.2218 232.016C72.7815 232.016 70.8032 233.99 70.8032 236.426C70.8032 238.861 72.7815 240.836 75.2218 240.836Z" fill="#3F3D56"/>
<path d="M36.6173 210.227C33.4856 196.229 43.4965 182.085 58.9773 178.635C74.4581 175.185 89.5466 183.736 92.6783 197.734C95.81 211.731 85.5503 216.894 70.0695 220.344C54.5887 223.794 39.7491 224.225 36.6173 210.227Z" fill="#AC002C"/>
<path d="M48.0768 236.558C49.5176 233.526 42.8408 227.355 33.1638 222.774C23.4868 218.194 14.474 216.938 13.0332 219.97C11.5923 223.002 18.2691 229.173 27.9461 233.754C37.6231 238.335 46.6359 239.59 48.0768 236.558Z" fill="#2F2E41"/>
<path d="M55.189 260.19C55.189 263.979 64.9631 271.46 75.809 271.46C86.6548 271.46 96.824 260.794 96.824 257.005C96.824 253.217 86.6548 257.74 75.809 257.74C64.9632 257.74 55.189 256.402 55.189 260.19Z" fill="white"/>
<path d="M209.481 301.595C214.904 301.595 219.3 299.949 219.3 297.92C219.3 295.89 214.904 294.245 209.481 294.245C204.058 294.245 199.662 295.89 199.662 297.92C199.662 299.949 204.058 301.595 209.481 301.595Z" fill="#2F2E41"/>
<path d="M185.916 301.105C191.339 301.105 195.735 299.459 195.735 297.43C195.735 295.4 191.339 293.755 185.916 293.755C180.493 293.755 176.097 295.4 176.097 297.43C176.097 299.459 180.493 301.105 185.916 301.105Z" fill="#2F2E41"/>
<path d="M174.472 243.738C176.152 240.831 169.991 234.146 160.712 228.808C151.433 223.469 142.55 221.498 140.871 224.405C139.191 227.313 145.352 233.997 154.631 239.336C163.91 244.674 172.793 246.645 174.472 243.738Z" fill="#2F2E41"/>
<path d="M201.626 284.935C223.047 284.935 240.411 267.604 240.411 246.226C240.411 224.847 223.047 207.516 201.626 207.516C180.206 207.516 162.841 224.847 162.841 246.226C162.841 267.604 180.206 284.935 201.626 284.935Z" fill="#2F2E41"/>
<path d="M219.3 276.605H207.518V297.675H219.3V276.605Z" fill="#2F2E41"/>
<path d="M195.735 276.605H183.952V297.675H195.735V276.605Z" fill="#2F2E41"/>
<path d="M192.539 249.656C199.86 249.656 205.795 243.732 205.795 236.426C205.795 229.119 199.86 223.196 192.539 223.196C185.218 223.196 179.283 229.119 179.283 236.426C179.283 243.732 185.218 249.656 192.539 249.656Z" fill="white"/>
<path d="M189.345 237.735C191.076 236.008 191.087 233.218 189.37 231.502C187.652 229.786 184.856 229.795 183.125 231.521C181.394 233.248 181.383 236.038 183.1 237.754C184.818 239.47 187.614 239.461 189.345 237.735Z" fill="#3F3D56"/>
<path d="M205.797 220.344C190.316 216.894 180.056 211.731 183.188 197.734C186.32 183.736 201.408 175.185 216.889 178.635C232.37 182.085 242.381 196.229 239.249 210.227C236.117 224.225 221.278 223.794 205.797 220.344Z" fill="#92C054"/>
<path d="M242.184 275.732C245.434 274.871 245.839 265.798 243.09 255.467C240.34 245.135 235.477 237.459 232.228 238.32C228.978 239.182 228.573 248.255 231.322 258.586C234.071 268.917 238.934 276.594 242.184 275.732Z" fill="#2F2E41"/>
<path d="M192.839 257.741C185.718 257.741 179.042 253.217 179.042 257.006C179.042 260.795 185.718 271.461 192.839 271.461C199.959 271.461 206.376 263.98 206.376 260.191C206.376 256.402 199.959 257.741 192.839 257.741Z" fill="white"/>
<path d="M142.715 182.044H139.271C136.185 182.041 133.227 180.816 131.045 178.638C128.864 176.461 127.636 173.508 127.633 170.429V167.543C127.633 160.395 128.99 154.409 131.667 149.753C134.91 144.337 138.695 139.263 142.962 134.607C145.794 131.764 148.365 128.672 150.642 125.368C152.275 122.802 153.118 119.813 153.067 116.773C153.067 109.603 148.386 106.117 138.756 106.117C133.415 106.177 128.107 106.972 122.983 108.479C121.007 109.042 118.927 109.14 116.906 108.764C114.886 108.389 112.981 107.551 111.34 106.315C109.7 105.08 108.369 103.482 107.452 101.646C106.536 99.81 106.059 97.787 106.059 95.736V89.8937C106.047 87.3787 106.767 84.9144 108.131 82.7996C109.495 80.6847 111.444 79.0101 113.743 77.9788C122.792 74.1243 132.552 72.2081 142.39 72.3542C152.696 72.3542 162 74.082 170.044 77.489C178.102 80.9039 184.468 85.7192 188.966 91.8015C193.45 97.8407 195.833 105.177 195.753 112.694C195.753 120.765 193.545 127.795 189.191 133.588C184.884 139.322 178.71 145.6 170.841 152.247C166.694 155.689 162.765 159.383 159.076 163.309C156.693 165.87 155.009 169 154.185 172.397C153.726 175.099 152.321 177.552 150.221 179.318C148.121 181.084 145.462 182.05 142.715 182.044Z" fill="#92C054"/>
<path d="M140.8 236.666H140.346C134.628 236.662 129.145 234.393 125.103 230.356C121.061 226.319 118.79 220.846 118.79 215.139C118.79 209.431 121.061 203.958 125.103 199.921C129.145 195.884 134.628 193.615 140.346 193.611H140.8C143.634 193.609 146.44 194.165 149.059 195.246C151.677 196.327 154.057 197.912 156.061 199.911C158.066 201.911 159.656 204.284 160.741 206.897C161.825 209.51 162.384 212.31 162.384 215.139C162.384 217.967 161.825 220.767 160.741 223.38C159.656 225.993 158.066 228.367 156.061 230.366C154.057 232.365 151.677 233.95 149.059 235.031C146.44 236.112 143.634 236.668 140.8 236.666Z" fill="#92C054"/>
<path d="M280.979 302H0.900574C0.661727 302 0.432675 301.905 0.263785 301.737C0.0948946 301.568 0 301.34 0 301.101C0 300.863 0.0948946 300.634 0.263785 300.466C0.432675 300.297 0.661727 300.202 0.900574 300.202H280.979C281.218 300.202 281.447 300.297 281.616 300.466C281.785 300.634 281.88 300.863 281.88 301.101C281.88 301.34 281.785 301.568 281.616 301.737C281.447 301.905 281.218 302 280.979 302Z" fill="#AC002C"/>
<path d="M470.1 302H320.605C320.366 302 320.137 301.905 319.968 301.737C319.799 301.568 319.704 301.34 319.704 301.101C319.704 300.863 319.799 300.634 319.968 300.466C320.137 300.297 320.366 300.202 320.605 300.202H470.1C470.339 300.202 470.568 300.297 470.737 300.466C470.906 300.634 471 300.863 471 301.101C471 301.34 470.906 301.568 470.737 301.737C470.568 301.905 470.339 302 470.1 302Z" fill="#AC002C"/>
<path d="M377.314 275.746C388.022 275.537 396.649 272.648 396.583 269.293C396.518 265.938 387.784 263.387 377.075 263.596C366.367 263.805 357.74 266.695 357.806 270.05C357.871 273.405 366.605 275.955 377.314 275.746Z" fill="#2F2E41"/>
<path d="M367.58 133.923H344.165C342.971 133.921 341.827 133.447 340.982 132.605C340.138 131.762 339.663 130.62 339.662 129.429V106.06C339.663 104.868 340.138 103.726 340.982 102.883C341.827 102.041 342.971 101.567 344.165 101.565H367.58C368.774 101.567 369.918 102.041 370.762 102.883C371.607 103.726 372.081 104.868 372.083 106.06V129.429C372.081 130.62 371.607 131.762 370.762 132.605C369.918 133.447 368.774 133.921 367.58 133.923ZM344.165 103.363C343.449 103.364 342.762 103.648 342.255 104.154C341.749 104.659 341.464 105.345 341.463 106.06V129.429C341.464 130.143 341.749 130.829 342.255 131.334C342.762 131.84 343.449 132.124 344.165 132.125H367.58C368.296 132.124 368.983 131.84 369.489 131.334C369.996 130.829 370.281 130.143 370.282 129.429V106.06C370.281 105.345 369.996 104.659 369.489 104.154C368.983 103.648 368.296 103.364 367.58 103.363H344.165Z" fill="#F0AFBF"/>
<path d="M378.387 118.643H354.972C353.778 118.641 352.633 118.168 351.789 117.325C350.945 116.483 350.47 115.34 350.469 114.149V90.7798C350.47 89.5883 350.945 88.446 351.789 87.6035C352.633 86.761 353.778 86.2871 354.972 86.2857H378.387C379.58 86.2871 380.725 86.761 381.569 87.6035C382.413 88.446 382.888 89.5883 382.889 90.7798V114.149C382.888 115.34 382.413 116.483 381.569 117.325C380.725 118.168 379.58 118.641 378.387 118.643ZM354.972 88.0833C354.255 88.0841 353.569 88.3684 353.062 88.874C352.556 89.3795 352.271 90.0649 352.27 90.7798V114.149C352.271 114.864 352.556 115.549 353.062 116.055C353.569 116.56 354.255 116.844 354.972 116.845H378.387C379.103 116.844 379.79 116.56 380.296 116.055C380.803 115.549 381.087 114.864 381.088 114.149V90.7798C381.087 90.0649 380.803 89.3795 380.296 88.874C379.79 88.3684 379.103 88.0841 378.387 88.0833H354.972Z" fill="#F0AFBF"/>
<path d="M193.768 44.0417H170.353C169.16 44.0404 168.015 43.5664 167.171 42.7239C166.327 41.8814 165.852 40.7391 165.851 39.5477V16.1786C165.852 14.9871 166.327 13.8449 167.171 13.0024C168.015 12.1599 169.16 11.6859 170.353 11.6846H193.768C194.962 11.6859 196.107 12.1599 196.951 13.0024C197.795 13.8449 198.27 14.9871 198.271 16.1786V39.5477C198.27 40.7391 197.795 41.8814 196.951 42.7239C196.107 43.5664 194.962 44.0404 193.768 44.0417ZM170.353 13.4822C169.637 13.483 168.95 13.7673 168.444 14.2728C167.937 14.7783 167.653 15.4637 167.652 16.1786V39.5477C167.653 40.2626 167.937 40.948 168.444 41.4535C168.95 41.959 169.637 42.2433 170.353 42.2441H193.768C194.485 42.2433 195.171 41.959 195.678 41.4535C196.184 40.948 196.469 40.2626 196.47 39.5477V16.1786C196.469 15.4637 196.184 14.7783 195.678 14.2728C195.171 13.7673 194.485 13.483 193.768 13.4822H170.353Z" fill="#F0AFBF"/>
<path d="M179.359 32.3571H155.944C154.75 32.3558 153.606 31.8819 152.762 31.0393C151.918 30.1968 151.443 29.0546 151.441 27.8631V4.49405C151.443 3.30257 151.918 2.1603 152.762 1.3178C153.606 0.475293 154.75 0.00136309 155.944 0H179.359C180.553 0.00136309 181.698 0.475293 182.542 1.3178C183.386 2.1603 183.861 3.30257 183.862 4.49405V27.8631C183.861 29.0546 183.386 30.1968 182.542 31.0393C181.698 31.8819 180.553 32.3558 179.359 32.3571ZM155.944 1.79762C155.228 1.7984 154.541 2.08274 154.035 2.58825C153.528 3.09376 153.243 3.77915 153.243 4.49405V27.8631C153.243 28.578 153.528 29.2634 154.035 29.7689C154.541 30.2744 155.228 30.5587 155.944 30.5595H179.359C180.076 30.5587 180.762 30.2744 181.269 29.7689C181.775 29.2634 182.06 28.578 182.061 27.8631V4.49405C182.06 3.77915 181.775 3.09376 181.269 2.58825C180.762 2.08274 180.076 1.7984 179.359 1.79762H155.944Z" fill="#F0AFBF"/>
<path d="M289.283 170.448C292.499 170.448 295.107 167.845 295.107 164.635C295.107 161.425 292.499 158.823 289.283 158.823C286.066 158.823 283.459 161.425 283.459 164.635C283.459 167.845 286.066 170.448 289.283 170.448Z" fill="#F0AFBF"/>
<path d="M55.1335 149.775C58.3499 149.775 60.9574 147.173 60.9574 143.962C60.9574 140.752 58.3499 138.15 55.1335 138.15C51.917 138.15 49.3096 140.752 49.3096 143.962C49.3096 147.173 51.917 149.775 55.1335 149.775Z" fill="#F0AFBF"/>
<path d="M447.784 200.108C451 200.108 453.608 197.506 453.608 194.296C453.608 191.086 451 188.483 447.784 188.483C444.567 188.483 441.96 191.086 441.96 194.296C441.96 197.506 444.567 200.108 447.784 200.108Z" fill="#F0AFBF"/>
</g>
<defs>
<clipPath id="clip0_898_1085">
<rect width="471" height="302" fill="white"/>
</clipPath>
</defs>
</svg>
