<svg width="28" height="26" viewBox="0 0 28 26" fill="none" xmlns="http://www.w3.org/2000/svg">
<path d="M14 25.5L11.97 23.7289C9.61333 21.6626 7.665 19.8801 6.125 18.3815C4.585 16.8828 3.36 15.5375 2.45 14.3454C1.54 13.1533 0.904167 12.0577 0.5425 11.0586C0.180833 10.0595 0 9.03769 0 7.99319C0 5.85876 0.735 4.07629 2.205 2.64578C3.675 1.21526 5.50667 0.5 7.7 0.5C8.91333 0.5 10.0683 0.749773 11.165 1.24932C12.2617 1.74886 13.2067 2.45277 14 3.36104C14.7933 2.45277 15.7383 1.74886 16.835 1.24932C17.9317 0.749773 19.0867 0.5 20.3 0.5C22.4933 0.5 24.325 1.21526 25.795 2.64578C27.265 4.07629 28 5.85876 28 7.99319C28 9.03769 27.8192 10.0595 27.4575 11.0586C27.0958 12.0577 26.46 13.1533 25.55 14.3454C24.64 15.5375 23.415 16.8828 21.875 18.3815C20.335 19.8801 18.3867 21.6626 16.03 23.7289L14 25.5ZM14 21.8215C16.24 19.8688 18.0833 18.1941 19.53 16.7977C20.9767 15.4012 22.12 14.1864 22.96 13.1533C23.8 12.1201 24.3833 11.2005 24.71 10.3944C25.0367 9.58833 25.2 8.78792 25.2 7.99319C25.2 6.63079 24.7333 5.49546 23.8 4.58719C22.8667 3.67893 21.7 3.2248 20.3 3.2248C19.2033 3.2248 18.1883 3.52566 17.255 4.12738C16.3217 4.72911 15.68 5.49546 15.33 6.42643H12.67C12.32 5.49546 11.6783 4.72911 10.745 4.12738C9.81167 3.52566 8.79667 3.2248 7.7 3.2248C6.3 3.2248 5.13333 3.67893 4.2 4.58719C3.26667 5.49546 2.8 6.63079 2.8 7.99319C2.8 8.78792 2.96333 9.58833 3.29 10.3944C3.61667 11.2005 4.2 12.1201 5.04 13.1533C5.88 14.1864 7.02333 15.4012 8.47 16.7977C9.91667 18.1941 11.76 19.8688 14 21.8215Z" fill="black"/>
</svg>
