<svg width="164" height="17" viewBox="0 0 164 17" fill="none" xmlns="http://www.w3.org/2000/svg">
<path d="M0.390625 0.21875H4.5625L8.96875 10.9688H9.15625L13.5625 0.21875H17.7344V16.2188H14.4531V5.80469H14.3203L10.1797 16.1406H7.94531L3.80469 5.76562H3.67188V16.2188H0.390625V0.21875Z" fill="white"/>
<path d="M19.584 0.21875H23.373L27.0215 7.10938H27.1777L30.8262 0.21875H34.6152L28.7793 10.5625V16.2188H25.4199V10.5625L19.584 0.21875Z" fill="white"/>
<path d="M41.5547 16.2188V0.21875H52.1484V3.00781H44.9375V6.82031H51.4453V9.60938H44.9375V16.2188H41.5547Z" fill="white"/>
<path d="M54.4238 16.2188V0.21875H60.7363C61.9447 0.21875 62.9759 0.434896 63.8301 0.867188C64.6895 1.29427 65.3431 1.90104 65.791 2.6875C66.2441 3.46875 66.4707 4.38802 66.4707 5.44531C66.4707 6.50781 66.2415 7.42188 65.7832 8.1875C65.3249 8.94792 64.6608 9.53125 63.791 9.9375C62.9264 10.3438 61.8796 10.5469 60.6504 10.5469H56.4238V7.82812H60.1035C60.7493 7.82812 61.2858 7.73958 61.7129 7.5625C62.14 7.38542 62.4577 7.11979 62.666 6.76563C62.8796 6.41146 62.9863 5.97135 62.9863 5.44531C62.9863 4.91406 62.8796 4.46615 62.666 4.10156C62.4577 3.73698 62.1374 3.46094 61.7051 3.27344C61.278 3.08073 60.7389 2.98438 60.0879 2.98438H57.8066V16.2188H54.4238ZM63.0645 8.9375L67.041 16.2188H63.3066L59.416 8.9375H63.0645Z" fill="white"/>
<path d="M68.8613 16.2188V0.21875H79.6426V3.00781H72.2441V6.82031H79.0879V9.60938H72.2441V13.4297H79.6738V16.2188H68.8613Z" fill="white"/>
<path d="M91.0117 4.82031C90.9492 4.1901 90.681 3.70052 90.207 3.35156C89.7331 3.0026 89.0898 2.82812 88.2773 2.82812C87.7253 2.82812 87.2591 2.90625 86.8789 3.0625C86.4987 3.21354 86.207 3.42448 86.0039 3.69531C85.806 3.96615 85.707 4.27344 85.707 4.61719C85.6966 4.90365 85.7565 5.15365 85.8867 5.36719C86.0221 5.58073 86.207 5.76563 86.4414 5.92188C86.6758 6.07292 86.9466 6.20573 87.2539 6.32031C87.5612 6.42969 87.8893 6.52344 88.2383 6.60156L89.6758 6.94531C90.3737 7.10156 91.0143 7.3099 91.5977 7.57031C92.181 7.83073 92.6862 8.15104 93.1133 8.53125C93.5404 8.91146 93.8711 9.35938 94.1055 9.875C94.3451 10.3906 94.4674 10.9818 94.4727 11.6484C94.4674 12.6276 94.2174 13.4766 93.7227 14.1953C93.2331 14.9089 92.5247 15.4635 91.5977 15.8594C90.6758 16.25 89.5638 16.4453 88.2617 16.4453C86.9701 16.4453 85.8451 16.2474 84.8867 15.8516C83.9336 15.4557 83.1888 14.8698 82.6523 14.0938C82.1211 13.3125 81.8424 12.3464 81.8164 11.1953H85.0898C85.1263 11.7318 85.2799 12.1797 85.5508 12.5391C85.8268 12.8932 86.194 13.1615 86.6523 13.3438C87.1159 13.5208 87.6393 13.6094 88.2227 13.6094C88.7956 13.6094 89.293 13.526 89.7148 13.3594C90.1419 13.1927 90.4727 12.9609 90.707 12.6641C90.9414 12.3672 91.0586 12.026 91.0586 11.6406C91.0586 11.2813 90.9518 10.9792 90.7383 10.7344C90.5299 10.4896 90.2227 10.2812 89.8164 10.1094C89.4154 9.9375 88.9232 9.78125 88.3398 9.64062L86.5977 9.20312C85.2487 8.875 84.1836 8.36198 83.4023 7.66406C82.6211 6.96615 82.2331 6.02604 82.2383 4.84375C82.2331 3.875 82.4909 3.02865 83.0117 2.30469C83.5378 1.58073 84.2591 1.01563 85.1758 0.609375C86.0924 0.203125 87.1341 0 88.3008 0C89.4883 0 90.5247 0.203125 91.4102 0.609375C92.3008 1.01563 92.9935 1.58073 93.4883 2.30469C93.9831 3.02865 94.2383 3.86719 94.2539 4.82031H91.0117Z" fill="white"/>
<path d="M96.748 16.2188V0.21875H100.131V6.82031H106.998V0.21875H110.373V16.2188H106.998V9.60938H100.131V16.2188H96.748Z" fill="white"/>
<path d="M123.926 16.2188H118.254V0.21875H123.973C125.582 0.21875 126.967 0.539063 128.129 1.17969C129.29 1.8151 130.184 2.72917 130.809 3.92188C131.439 5.11458 131.754 6.54167 131.754 8.20313C131.754 9.86979 131.439 11.3021 130.809 12.5C130.184 13.6979 129.285 14.6172 128.113 15.2578C126.947 15.8984 125.551 16.2188 123.926 16.2188ZM121.637 13.3203H123.785C124.785 13.3203 125.626 13.1432 126.309 12.7891C126.996 12.4297 127.512 11.875 127.855 11.125C128.204 10.3698 128.379 9.39583 128.379 8.20313C128.379 7.02083 128.204 6.05469 127.855 5.30469C127.512 4.55469 126.999 4.0026 126.316 3.64844C125.634 3.29427 124.793 3.11719 123.793 3.11719H121.637V13.3203Z" fill="white"/>
<path d="M134.26 16.2188V0.21875H145.041V3.00781H137.643V6.82031H144.486V9.60938H137.643V13.4297H145.072V16.2188H134.26Z" fill="white"/>
<path d="M147.73 16.2188V0.21875H151.113V13.4297H157.973V16.2188H147.73Z" fill="white"/>
<path d="M163.596 0.21875V16.2188H160.213V0.21875H163.596Z" fill="white"/>
</svg>
