<svg width="150" height="17" viewBox="0 0 150 17" fill="none" xmlns="http://www.w3.org/2000/svg">
<path d="M0.66 0.492027H4.884L6.556 5.97003L8.228 11.998H8.25L9.966 5.97003L11.66 0.492027H15.862L16.478 16.508H13.288L13.112 10.568L12.958 5.13403H12.892L9.504 16.508H6.776L3.564 5.13403H3.498L3.3 10.568L3.124 16.508H0L0.66 0.492027Z" fill="#1D1F21"/>
<path d="M22.903 10.348L17.931 0.492027H21.561L23.101 4.23203L24.531 8.01603H24.575L26.005 4.23203L27.567 0.492027H31.175L26.203 10.348V16.508H22.903V10.348Z" fill="#1D1F21"/>
<path d="M37.5117 0.492027H47.1037L46.9277 3.22003H40.8117V7.22403H46.5097L46.3337 9.93003H40.8117V16.508H37.5117V0.492027Z" fill="#1D1F21"/>
<path d="M49.2422 0.602026C49.8729 0.54336 50.5695 0.49936 51.3322 0.470027C52.0949 0.440694 52.8869 0.426027 53.7082 0.426027C55.2335 0.426027 56.4802 0.594694 57.4482 0.932027C58.4309 1.26936 59.1569 1.78269 59.6262 2.47203C60.0955 3.16136 60.3302 4.04136 60.3302 5.11203C60.3302 5.83069 60.1835 6.47603 59.8902 7.04803C59.6115 7.60536 59.2522 8.08203 58.8122 8.47803C58.3722 8.85936 57.8955 9.13069 57.3822 9.29203V9.33603L60.9462 16.508H57.4042L54.4562 10.194H52.4982V16.508H49.2422V0.602026ZM54.2362 7.68603C54.7349 7.68603 55.1895 7.59803 55.6002 7.42203C56.0255 7.24603 56.3629 6.98203 56.6122 6.63003C56.8762 6.27803 57.0082 5.83803 57.0082 5.31003C57.0082 4.48869 56.7662 3.90203 56.2822 3.55003C55.8129 3.18336 55.1162 3.00003 54.1922 3.00003C53.8402 3.00003 53.5249 3.00736 53.2462 3.02203C52.9822 3.02203 52.7329 3.02936 52.4982 3.04403V7.68603H54.2362Z" fill="#1D1F21"/>
<path d="M62.5625 0.492027H72.1985L72.0445 3.22003H65.8625V6.91603H71.6265L71.4725 9.64403H65.8625V13.78H72.5065L72.3305 16.508H62.5625V0.492027Z" fill="#1D1F21"/>
<path d="M78.7067 16.772C77.7974 16.772 76.9247 16.6767 76.0887 16.486C75.2674 16.2807 74.6074 16.0827 74.1087 15.892L74.6587 13.318C75.2014 13.4794 75.8247 13.648 76.5287 13.824C77.2327 13.9854 77.9221 14.066 78.5967 14.066C79.1541 14.066 79.6381 13.9854 80.0487 13.824C80.4594 13.6627 80.7747 13.4354 80.9947 13.142C81.2294 12.8487 81.3467 12.504 81.3467 12.108C81.3467 11.668 81.2001 11.3014 80.9067 11.008C80.6281 10.7147 80.2541 10.4507 79.7847 10.216C79.3154 9.98136 78.8094 9.75403 78.2667 9.53403C77.7974 9.31403 77.328 9.07203 76.8587 8.80803C76.3894 8.54403 75.9567 8.23603 75.5607 7.88403C75.1794 7.53203 74.8714 7.11403 74.6367 6.63003C74.4021 6.13136 74.2847 5.55203 74.2847 4.89203C74.2847 3.89469 74.5341 3.05136 75.0327 2.36203C75.5461 1.67269 76.2354 1.14469 77.1007 0.778027C77.9807 0.411361 78.9781 0.228027 80.0927 0.228027C80.8554 0.228027 81.5814 0.308694 82.2707 0.470027C82.9601 0.616693 83.5541 0.800027 84.0527 1.02003L83.5687 3.59403C83.1874 3.44736 82.6814 3.30069 82.0507 3.15403C81.4347 3.00736 80.8187 2.93403 80.2027 2.93403C79.3961 2.93403 78.7654 3.09536 78.3107 3.41803C77.8561 3.74069 77.6287 4.17336 77.6287 4.71603C77.6287 5.12669 77.7681 5.47869 78.0467 5.77203C78.3401 6.05069 78.7141 6.30736 79.1687 6.54203C79.6234 6.76203 80.1147 6.98936 80.6427 7.22403C81.112 7.42936 81.5814 7.66403 82.0507 7.92803C82.5347 8.17736 82.9747 8.47803 83.3707 8.83003C83.7814 9.18203 84.1041 9.60736 84.3387 10.106C84.5734 10.6047 84.6907 11.1914 84.6907 11.866C84.6907 12.8487 84.4487 13.714 83.9647 14.462C83.4954 15.1954 82.8134 15.7674 81.9187 16.178C81.024 16.574 79.9534 16.772 78.7067 16.772Z" fill="#1D1F21"/>
<path d="M86.8184 0.492027H90.1184V6.85003H96.0584V0.492027H99.3364V16.508H96.0584V9.66603H90.1184V16.508H86.8184V0.492027Z" fill="#1D1F21"/>
<path d="M110.841 16.618C110.034 16.618 109.323 16.596 108.707 16.552C108.091 16.5227 107.534 16.4934 107.035 16.464V0.602026C107.768 0.54336 108.546 0.49936 109.367 0.470027C110.203 0.440694 111.01 0.426027 111.787 0.426027C113.694 0.426027 115.278 0.741361 116.539 1.37203C117.815 2.00269 118.761 2.90469 119.377 4.07803C120.008 5.23669 120.323 6.63003 120.323 8.25803C120.323 10.194 119.956 11.778 119.223 13.01C118.504 14.242 117.434 15.1514 116.011 15.738C114.603 16.3247 112.88 16.618 110.841 16.618ZM111.545 13.956C112.645 13.956 113.591 13.7654 114.383 13.384C115.175 13.0027 115.784 12.4014 116.209 11.58C116.649 10.744 116.869 9.65869 116.869 8.32403C116.869 7.15069 116.671 6.17536 116.275 5.39803C115.894 4.60603 115.336 4.01936 114.603 3.63803C113.87 3.25669 112.982 3.06603 111.941 3.06603C111.662 3.06603 111.384 3.07336 111.105 3.08803C110.826 3.08803 110.57 3.11003 110.335 3.15403V13.912C110.511 13.9267 110.694 13.9414 110.885 13.956C111.09 13.956 111.31 13.956 111.545 13.956Z" fill="#1D1F21"/>
<path d="M122.418 0.492027H132.054L131.9 3.22003H125.718V6.91603H131.482L131.328 9.64403H125.718V13.78H132.362L132.186 16.508H122.418V0.492027Z" fill="#1D1F21"/>
<path d="M134.492 0.492027H137.792V13.78H144.282L144.128 16.508H134.492V0.492027Z" fill="#1D1F21"/>
<path d="M146.008 0.492027H149.308V16.508H146.008V0.492027Z" fill="#1D1F21"/>
</svg>
