<svg width="17" height="16" viewBox="0 0 17 16" fill="none" xmlns="http://www.w3.org/2000/svg">
<path d="M8.30859 8C7.20859 8 6.26693 7.60833 5.48359 6.825C4.70026 6.04167 4.30859 5.1 4.30859 4C4.30859 2.9 4.70026 1.95833 5.48359 1.175C6.26693 0.391667 7.20859 0 8.30859 0C9.40859 0 10.3503 0.391667 11.1336 1.175C11.9169 1.95833 12.3086 2.9 12.3086 4C12.3086 5.1 11.9169 6.04167 11.1336 6.825C10.3503 7.60833 9.40859 8 8.30859 8ZM0.308594 16V13.2C0.308594 12.6333 0.454427 12.1125 0.746094 11.6375C1.03776 11.1625 1.42526 10.8 1.90859 10.55C2.94193 10.0333 3.99193 9.64583 5.05859 9.3875C6.12526 9.12917 7.20859 9 8.30859 9C9.40859 9 10.4919 9.12917 11.5586 9.3875C12.6253 9.64583 13.6753 10.0333 14.7086 10.55C15.1919 10.8 15.5794 11.1625 15.8711 11.6375C16.1628 12.1125 16.3086 12.6333 16.3086 13.2V16H0.308594ZM2.30859 14H14.3086V13.2C14.3086 13.0167 14.2628 12.85 14.1711 12.7C14.0794 12.55 13.9586 12.4333 13.8086 12.35C12.9086 11.9 12.0003 11.5625 11.0836 11.3375C10.1669 11.1125 9.24193 11 8.30859 11C7.37526 11 6.45026 11.1125 5.53359 11.3375C4.61693 11.5625 3.70859 11.9 2.80859 12.35C2.65859 12.4333 2.53776 12.55 2.44609 12.7C2.35443 12.85 2.30859 13.0167 2.30859 13.2V14ZM8.30859 6C8.85859 6 9.32943 5.80417 9.72109 5.4125C10.1128 5.02083 10.3086 4.55 10.3086 4C10.3086 3.45 10.1128 2.97917 9.72109 2.5875C9.32943 2.19583 8.85859 2 8.30859 2C7.75859 2 7.28776 2.19583 6.89609 2.5875C6.50443 2.97917 6.30859 3.45 6.30859 4C6.30859 4.55 6.50443 5.02083 6.89609 5.4125C7.28776 5.80417 7.75859 6 8.30859 6Z" fill="white"/>
</svg>
