<svg width="17" height="17" viewBox="0 0 17 17" fill="none" xmlns="http://www.w3.org/2000/svg">
<path d="M8.30859 8.5C7.20859 8.5 6.26693 8.10833 5.48359 7.325C4.70026 6.54167 4.30859 5.6 4.30859 4.5C4.30859 3.4 4.70026 2.45833 5.48359 1.675C6.26693 0.891667 7.20859 0.5 8.30859 0.5C9.40859 0.5 10.3503 0.891667 11.1336 1.675C11.9169 2.45833 12.3086 3.4 12.3086 4.5C12.3086 5.6 11.9169 6.54167 11.1336 7.325C10.3503 8.10833 9.40859 8.5 8.30859 8.5ZM0.308594 16.5V13.7C0.308594 13.1333 0.454427 12.6125 0.746094 12.1375C1.03776 11.6625 1.42526 11.3 1.90859 11.05C2.94193 10.5333 3.99193 10.1458 5.05859 9.8875C6.12526 9.62917 7.20859 9.5 8.30859 9.5C9.40859 9.5 10.4919 9.62917 11.5586 9.8875C12.6253 10.1458 13.6753 10.5333 14.7086 11.05C15.1919 11.3 15.5794 11.6625 15.8711 12.1375C16.1628 12.6125 16.3086 13.1333 16.3086 13.7V16.5H0.308594ZM2.30859 14.5H14.3086V13.7C14.3086 13.5167 14.2628 13.35 14.1711 13.2C14.0794 13.05 13.9586 12.9333 13.8086 12.85C12.9086 12.4 12.0003 12.0625 11.0836 11.8375C10.1669 11.6125 9.24193 11.5 8.30859 11.5C7.37526 11.5 6.45026 11.6125 5.53359 11.8375C4.61693 12.0625 3.70859 12.4 2.80859 12.85C2.65859 12.9333 2.53776 13.05 2.44609 13.2C2.35443 13.35 2.30859 13.5167 2.30859 13.7V14.5ZM8.30859 6.5C8.85859 6.5 9.32943 6.30417 9.72109 5.9125C10.1128 5.52083 10.3086 5.05 10.3086 4.5C10.3086 3.95 10.1128 3.47917 9.72109 3.0875C9.32943 2.69583 8.85859 2.5 8.30859 2.5C7.75859 2.5 7.28776 2.69583 6.89609 3.0875C6.50443 3.47917 6.30859 3.95 6.30859 4.5C6.30859 5.05 6.50443 5.52083 6.89609 5.9125C7.28776 6.30417 7.75859 6.5 8.30859 6.5Z" fill="#1D1F21"/>
</svg>
