<svg width="1244" height="684" viewBox="0 0 1244 684" fill="none" xmlns="http://www.w3.org/2000/svg">
<path d="M109.426 20.7839C102.214 19.3696 94.5714 17.2737 86.7293 15.1231C84.9025 14.6221 83.0648 14.1181 81.2193 13.6191C71.5561 11.0063 61.7072 8.53977 52.5984 7.60846C43.5188 6.68013 34.7217 7.22275 27.3972 11.0539C19.9054 14.9726 14.4921 22.0416 11.7017 32.9872C8.82722 44.2621 11.3322 53.1446 14.3289 61.502C14.7468 62.6675 15.1713 63.8178 15.5933 64.9611C18.2217 72.0828 20.751 78.9361 20.9602 87.5228C21.2494 99.3999 18.9888 108.44 16.5594 117.869C16.5108 118.058 16.4622 118.247 16.4135 118.435C14.0246 127.703 11.5198 137.419 11.5932 150.075C11.665 162.436 13.7564 171.848 15.9282 180.986C16.0557 181.522 16.1833 182.057 16.3108 182.592C18.3538 191.156 20.3624 199.575 20.9645 210.457C21.9643 228.525 19.3077 242.505 16.5142 256.847L16.3919 257.475C13.6342 271.627 10.794 286.204 11.5964 304.941C12.162 318.149 14.2773 328.276 16.3386 338.145L16.375 338.319C18.4452 348.231 20.4524 357.902 20.962 370.559C21.6747 388.262 19.5167 401.936 17.067 415.859C16.89 416.865 16.7113 417.873 16.532 418.885C14.2299 431.872 11.8349 445.383 11.5935 462.488C11.2923 483.832 13.7653 500.357 16.2275 516.645L16.2817 517.003C18.7239 533.158 21.1349 549.106 20.9593 569.679C20.8374 583.95 16.2483 597.032 11.7276 609.918C10.4001 613.702 9.07856 617.469 7.87776 621.245C2.69552 637.539 -0.064404 653.913 12.3608 669.434C15.8052 673.737 19.557 676.605 23.6466 678.133C27.7474 679.666 31.9126 679.748 36.0047 678.923C43.9648 677.319 52.0949 672.16 59.8755 666.936C60.9266 666.23 61.9747 665.521 63.0206 664.813C69.9651 660.113 76.8136 655.478 83.8087 652.416C91.7508 648.938 99.378 647.726 106.977 650.646C112.994 652.957 117.11 656.303 121.626 660.007L121.755 660.114C126.21 663.768 131.077 667.761 138.19 670.512C157.451 677.959 173.47 668.763 187.764 660.556L188.316 660.239C203.256 651.665 216.445 644.339 232.344 650.633C238.261 652.975 242.297 656.319 246.736 660.018L246.815 660.084C251.206 663.744 256.005 667.742 263.054 670.506C282.131 677.985 297.912 668.923 312.028 660.817L312.294 660.664C326.965 652.241 339.964 644.899 355.749 650.666C361.958 652.934 366.223 656.31 370.899 660.042L371.021 660.14C375.637 663.825 380.673 667.845 388.006 670.533C407.187 677.565 422.947 668.665 437.087 660.68L437.474 660.462C452.165 652.167 465.223 644.961 481.17 650.673C487.48 652.934 491.831 656.312 496.586 660.043L496.74 660.164C501.428 663.842 506.537 667.85 513.936 670.537C533.223 677.541 549.351 668.236 563.663 659.978C564.042 659.759 564.421 659.541 564.798 659.324C579.92 650.612 593.145 643.489 608.918 650.571C614.355 653.013 618.018 656.285 622.057 659.92L622.151 660.003C626.141 663.594 630.515 667.53 637.019 670.442C656.398 679.118 672.722 669.628 687.305 661.15L687.309 661.147C702.441 652.35 715.851 644.565 731.909 650.651C738.022 652.968 742.215 656.336 746.815 660.052L746.894 660.116C751.447 663.794 756.411 667.804 763.66 670.524C782.794 677.704 798.594 668.685 812.726 660.62L813.194 660.353C827.922 651.949 840.962 644.713 856.799 650.655C862.912 652.949 867.103 656.311 871.699 660.028L871.82 660.126C876.357 663.796 881.31 667.802 888.536 670.523C907.864 677.8 923.739 668.887 938.026 660.867L938.204 660.767C952.98 652.472 966.166 645.151 982.292 650.689C988.79 652.92 993.282 656.35 998.202 660.122L998.26 660.166C1003.14 663.905 1008.44 667.972 1016.13 670.564C1034.83 676.864 1050.16 668.072 1063.82 660.239L1064.68 659.748C1079.02 651.534 1091.65 644.667 1107.04 650.641C1112.96 652.937 1116.99 656.268 1121.42 659.97L1121.58 660.104C1125.94 663.748 1130.72 667.74 1137.72 670.503C1155.56 677.543 1174.96 682.114 1192.48 679.966C1210.25 677.789 1225.93 668.703 1235.8 648.942C1243.85 632.812 1240.09 618.376 1235.39 604.511C1234.83 602.867 1234.26 601.232 1233.69 599.601C1229.39 587.266 1225.18 575.162 1226.78 561.073C1227.67 553.227 1229.46 547.338 1231.33 541.202L1231.41 540.938C1233.32 534.691 1235.28 528.179 1236.15 519.483C1237.68 504.185 1234.29 492.103 1231.1 480.761C1230.98 480.357 1230.87 479.955 1230.76 479.554C1227.47 467.833 1224.58 456.753 1226.76 442.6C1227.74 436.252 1229.36 431.562 1231.12 426.657L1231.37 425.97C1233.07 421.253 1234.87 416.235 1236.11 409.592C1239.94 388.979 1236.78 372.64 1233.15 356.692C1232.87 355.447 1232.58 354.204 1232.3 352.963C1228.92 338.292 1225.58 323.759 1226.79 305.627C1227.5 295.075 1229.45 286.885 1231.43 278.585C1231.58 277.966 1231.73 277.346 1231.87 276.724C1234 267.763 1236.03 258.543 1236.17 246.429C1236.32 233.3 1233.84 223.28 1231.44 213.634L1231.42 213.565C1229.03 203.954 1226.73 194.714 1226.8 182.587C1226.86 171.403 1229.15 162.797 1231.52 153.9L1231.83 152.747C1234.3 143.428 1236.74 133.725 1236.16 120.997C1235.73 111.331 1233.46 104.021 1231.33 97.142L1231.18 96.6445C1229 89.6313 1227.01 82.9918 1226.8 74.1093C1226.59 65.3404 1229.31 58.3483 1232.18 50.9571C1232.53 50.0617 1232.88 49.1604 1233.22 48.2494C1236.4 39.9118 1239.23 30.9373 1236.03 19.651C1234.5 14.2473 1232.27 10.1315 1229.18 7.3781C1226 4.55081 1222.23 3.44775 1218.27 3.50191C1214.41 3.55464 1210.35 4.69769 1206.29 6.32437C1202.21 7.96082 1197.91 10.1835 1193.53 12.5799C1191.46 13.7116 1189.38 14.8804 1187.29 16.0562C1180.38 19.9385 1173.33 23.8981 1166.21 26.8547C1156.94 30.6984 1148.24 32.5289 1140.42 30.4673C1134.41 28.8853 1130 26.5938 1125.28 24.1295L1125.18 24.0817C1120.49 21.6322 1115.48 19.018 1108.68 17.2221C1089.71 12.2095 1074.37 18.3393 1060.17 24.0085L1059.61 24.2337C1045.08 30.0319 1031.7 35.2088 1015.08 30.4853C1009.38 28.8623 1005.19 26.6002 1000.71 24.1612L1000.61 24.1069C996.155 21.6846 991.391 19.0936 984.911 17.2408C965.621 11.7252 950.149 17.2411 935.582 22.7328C935.162 22.8909 934.744 23.049 934.326 23.2068C920.1 28.5779 906.675 33.647 889.911 30.4151C884.017 29.2788 879.572 27.593 874.886 25.7983L874.692 25.724C870.058 23.9493 865.163 22.0745 858.714 20.7863C839.897 17.0272 824.95 21.399 810.77 25.5465L810.755 25.5508C796.519 29.7146 783.06 33.646 766.064 30.4135C759.96 29.2526 755.348 27.5499 750.495 25.7529L750.434 25.7303C745.594 23.9382 740.51 22.0557 733.803 20.7801C715.099 17.2228 700.23 21.5513 686.147 25.6507L685.853 25.7362C671.633 29.875 658.184 33.7268 641.2 30.4165C635.196 29.2463 630.661 27.5529 625.888 25.7634L625.804 25.7318C621.052 23.9499 616.055 22.0763 609.464 20.7839C590.526 17.0704 575.462 21.4574 561.185 25.6157L560.982 25.6747C546.593 29.8653 532.981 33.7853 515.804 30.4172C509.799 29.2398 505.264 27.5442 500.489 25.755L500.44 25.7366C495.676 23.9511 490.67 22.0753 484.062 20.7835C465.299 17.1154 450.346 21.5233 436.21 25.6904L435.812 25.8075C421.504 30.0245 407.989 33.9218 390.956 30.4234C385.152 29.2315 380.774 27.5502 376.16 25.7719L376.088 25.7442C371.49 23.9723 366.651 22.1072 360.258 20.7904C341.282 16.8817 326.168 21.3485 311.852 25.5796L311.74 25.6125C297.334 29.87 283.727 33.8657 266.582 30.4204C260.677 29.2338 256.218 27.5474 251.524 25.7656L251.453 25.7384C246.775 23.9628 241.857 22.0958 235.364 20.7874C216.289 16.9433 201.113 21.3757 186.72 25.5793L186.611 25.611C172.133 29.8394 158.439 33.814 141.168 30.4176C135.162 29.2365 130.625 27.542 125.85 25.7546L125.801 25.7364C121.037 23.9526 116.032 22.0792 109.426 20.7839Z" fill="#D8D355" stroke="#EEEBA3" stroke-width="7"/>
</svg>
