<svg width="342" height="300" viewBox="0 0 342 300" fill="none" xmlns="http://www.w3.org/2000/svg">
<path d="M168.526 11.0106L167.477 14.35L168.526 11.0106C162.394 9.086 157.464 11.3881 153.774 13.111C153.685 13.1523 153.598 13.1932 153.511 13.2338C149.567 15.0722 146.926 16.1823 143.55 15.1228C142.309 14.7332 141.359 14.1767 140.07 13.4035L139.993 13.357C138.745 12.6083 137.169 11.6625 135.083 11.0097C128.989 9.10261 124.079 11.4241 120.429 13.1501C120.325 13.1992 120.222 13.2479 120.12 13.296C116.204 15.1437 113.609 16.2273 110.294 15.1372C109.102 14.7455 108.19 14.1967 106.945 13.4284L106.863 13.3781C105.66 12.6353 104.133 11.6929 102.11 11.026C95.9424 8.99251 90.9729 11.3469 87.2783 13.0973C87.1955 13.1365 87.1134 13.1754 87.0319 13.214C83.0725 15.0871 80.4542 16.2061 77.1097 15.1303C75.8916 14.7384 74.9591 14.1855 73.6927 13.416L73.611 13.3664C72.3862 12.6219 70.8372 11.6803 68.7873 11.019C62.609 9.0259 57.6374 11.3533 53.9191 13.094C53.8374 13.1322 53.7562 13.1702 53.6757 13.2079C49.7018 15.0657 47.0442 16.1925 43.6491 15.1236C42.4056 14.7322 41.4539 14.1749 40.1652 13.4027L40.088 13.3564C38.8402 12.6084 37.2657 11.6646 35.1822 11.0106C33.4226 10.4583 31.5653 9.64357 29.4867 8.73173C28.9841 8.51127 28.4686 8.28513 27.9384 8.05565C25.3796 6.94817 22.4547 5.75427 19.63 5.29197C16.7307 4.81746 13.4157 5.03415 10.6249 7.3708C7.96191 9.60054 6.44935 13.2175 5.70174 17.9116C4.90119 22.9382 5.60417 26.8945 6.41756 30.5258C6.53128 31.0335 6.64582 31.5307 6.75893 32.0218C7.45811 35.0572 8.10238 37.8543 8.15617 41.3893C8.23172 46.3545 7.64357 50.1286 6.99747 54.1429C6.98381 54.2278 6.97013 54.3127 6.95643 54.3978C6.31899 58.3557 5.63828 62.5822 5.6582 68.0778C5.67763 73.4374 6.24543 77.5211 6.82685 81.4373C6.86052 81.6641 6.8942 81.8901 6.92781 82.1157C7.47271 85.7725 7.99958 89.3084 8.15786 93.887C8.42124 101.506 7.72299 107.398 6.97887 113.514L6.94449 113.796C6.20917 119.837 5.44325 126.129 5.65943 134.21C5.81182 139.907 6.3823 144.279 6.93202 148.492L6.94302 148.576C7.49459 152.803 8.02259 156.88 8.15687 162.219C8.345 169.699 7.77643 175.475 7.12471 181.404C7.07738 181.835 7.02957 182.266 6.98157 182.7C6.3677 188.243 5.7232 194.062 5.65832 201.423C5.57745 210.595 6.24212 217.7 6.89902 224.656L6.91239 224.797C7.56383 231.695 8.20235 238.456 8.15582 247.183C8.12404 253.141 6.93642 258.563 5.73662 264.041C5.37893 265.674 5.02015 267.312 4.6906 268.971C3.30667 275.936 2.46601 283.28 6.02779 290.402C7.0056 292.358 8.25437 294.062 9.96912 295.088C11.8577 296.218 13.8558 296.258 15.6247 295.687C17.2362 295.168 18.6381 294.156 19.7744 293.181C20.9415 292.178 22.0858 290.983 23.1422 289.848C23.4349 289.533 23.7209 289.224 24.001 288.921C25.8837 286.885 27.5004 285.136 29.1167 284.003C29.9964 283.387 30.6283 283.142 31.0535 283.075C31.3776 283.025 31.6982 283.052 32.162 283.337C33.2803 284.025 34.1147 285.058 35.3743 286.712L35.4935 286.869C36.624 288.355 38.1641 290.38 40.4785 291.813C42.1427 292.843 43.8859 293.38 45.6751 293.407C47.4391 293.434 49.033 292.961 50.4201 292.296C52.9527 291.082 55.2383 288.981 57.0524 287.312L57.2543 287.127C59.3248 285.225 60.876 283.846 62.3563 283.147C63.0216 282.832 63.53 282.732 63.9456 282.743C64.3374 282.753 64.8575 282.866 65.5618 283.312C66.6666 284.012 67.4871 285.049 68.7267 286.703L68.8349 286.847C69.948 288.334 71.466 290.361 73.7613 291.801C75.3949 292.827 77.1098 293.375 78.8763 293.421C80.6204 293.466 82.1986 293.016 83.5734 292.37C86.1044 291.181 88.3755 289.092 90.1679 287.444L90.3155 287.308C92.3511 285.437 93.8824 284.061 95.3617 283.336C96.5453 282.755 97.4126 282.71 98.5533 283.377C99.7002 284.048 100.56 285.083 101.866 286.751L101.988 286.907C103.158 288.404 104.757 290.45 107.151 291.855C110.664 293.917 114.045 293.609 116.938 292.245C119.453 291.059 121.716 289.013 123.511 287.39L123.681 287.236C125.718 285.395 127.253 284.044 128.736 283.335C129.931 282.764 130.837 282.714 132.019 283.392C133.19 284.063 134.069 285.102 135.395 286.767L135.523 286.929C136.714 288.426 138.333 290.462 140.743 291.863C144.382 293.979 147.868 293.518 150.783 292.043C153.265 290.788 155.526 288.698 157.338 287.024C157.444 286.926 157.549 286.828 157.653 286.733C159.745 284.803 161.292 283.455 162.731 282.819C163.366 282.538 163.837 282.469 164.22 282.5C164.587 282.529 165.116 282.67 165.851 283.198C166.884 283.94 167.64 284.974 168.765 286.594L168.864 286.738C169.878 288.2 171.25 290.178 173.348 291.682C174.962 292.839 176.69 293.517 178.51 293.65C180.313 293.781 181.953 293.359 183.379 292.714C186.014 291.522 188.375 289.324 190.227 287.6L190.331 287.504C192.432 285.549 194.021 284.087 195.562 283.312C196.261 282.961 196.795 282.838 197.226 282.836C197.625 282.833 198.136 282.93 198.824 283.348C199.967 284.041 200.818 285.084 202.102 286.745L202.213 286.889C203.368 288.383 204.94 290.418 207.302 291.837C210.822 293.952 214.225 293.642 217.131 292.255C219.642 291.057 221.904 288.989 223.698 287.35L223.883 287.18C225.925 285.315 227.457 283.957 228.929 283.255C230.094 282.698 230.968 282.653 232.139 283.356C233.273 284.037 234.121 285.072 235.403 286.733L235.523 286.888C236.674 288.38 238.244 290.415 240.598 291.835C244.096 293.943 247.484 293.698 250.409 292.355C252.965 291.182 255.256 289.122 257.072 287.49L257.203 287.371C259.254 285.529 260.807 284.159 262.321 283.425C263.562 282.823 264.502 282.767 265.695 283.423C266.896 284.083 267.799 285.131 269.175 286.82L269.292 286.964C270.525 288.48 272.216 290.556 274.738 291.917C278.267 293.821 281.601 293.351 284.39 291.947C286.79 290.739 288.962 288.744 290.693 287.155C290.78 287.075 290.865 286.996 290.95 286.919C292.936 285.098 294.409 283.808 295.804 283.161C296.877 282.663 297.692 282.619 298.835 283.329C299.924 284.005 300.738 285.026 301.975 286.68L302.099 286.846C303.205 288.328 304.718 290.355 306.999 291.796C311.921 294.905 317.898 297.354 323.69 296.218C329.874 295.004 334.491 290.035 337.186 281.398C339.439 274.174 338.372 267.765 337.11 261.811C336.96 261.103 336.808 260.402 336.656 259.705C335.511 254.437 334.423 249.436 334.838 243.594C335.071 240.314 335.538 237.859 336.037 235.239L336.056 235.139C336.565 232.463 337.1 229.62 337.338 225.831C337.755 219.165 336.829 213.893 335.978 209.05C335.947 208.871 335.915 208.694 335.884 208.516C335.011 203.531 334.264 198.93 334.831 193.051C335.084 190.418 335.504 188.478 335.97 186.398L336.037 186.099C336.49 184.084 336.984 181.885 337.321 178.984C338.361 170.035 337.5 162.944 336.529 156.111C336.453 155.58 336.378 155.052 336.302 154.525C335.402 148.26 334.524 142.153 334.844 134.52C335.03 130.078 335.542 126.637 336.07 123.093C336.109 122.831 336.148 122.568 336.187 122.304C336.756 118.463 337.306 114.463 337.344 109.212C337.386 103.51 336.71 99.1534 336.069 95.0282L336.068 95.0159C335.43 90.9121 334.829 87.0433 334.847 81.9559C334.863 77.2748 335.46 73.6823 336.092 69.8827C336.119 69.7234 336.145 69.5638 336.172 69.4037C336.835 65.4076 337.499 61.1756 337.343 55.6301C337.224 51.4093 336.604 48.208 336.035 45.267L335.991 45.0433C335.415 42.0635 334.901 39.3158 334.846 35.6303C334.794 32.0401 335.482 29.2005 336.246 26.0462C336.339 25.6649 336.432 25.279 336.525 24.8866C337.387 21.2683 338.187 17.2539 337.291 12.1973C336.878 9.86546 336.24 7.80762 335.157 6.26612C333.934 4.52439 332.125 3.45371 329.942 3.50151C328.099 3.54184 326.469 4.38234 325.269 5.15276C324.002 5.96606 322.73 7.02561 321.549 8.06049C320.933 8.60034 320.337 9.13651 319.754 9.66064C317.945 11.2861 316.265 12.7957 314.543 13.9399C312.21 15.4894 311.028 15.5156 310.367 15.2371C309.2 14.745 308.31 14.0288 307.019 12.9502L306.917 12.8655C305.703 11.8508 304.102 10.5131 301.907 9.58442C295.426 6.843 290.116 10.2524 286.563 12.5344C286.425 12.6231 286.289 12.71 286.157 12.7948C282.037 15.4277 279.829 16.556 277.017 15.2765C275.91 14.7729 275.068 14.0658 273.841 12.9982L273.742 12.9118C272.59 11.9084 271.069 10.5834 268.976 9.62541C262.32 6.57884 256.918 9.83863 253.17 12.1009L253.143 12.1172C248.935 14.6564 246.446 16.0891 243.298 15.1178C242.107 14.7502 241.193 14.2087 239.932 13.4356L239.82 13.3674C238.608 12.6235 237.056 11.6715 235.007 11.0163C228.901 9.0636 223.996 11.3627 220.333 13.0794L220.113 13.1829C216.2 15.0149 213.593 16.1281 210.262 15.1139C209.001 14.7299 208.035 14.1714 206.726 13.3952L206.644 13.3469C205.377 12.5955 203.776 11.6462 201.659 11.0017C195.6 9.15691 190.732 11.4292 187.092 13.1282C186.997 13.1725 186.903 13.2164 186.81 13.2598C182.918 15.0732 180.313 16.1598 176.984 15.121C175.746 14.7347 174.798 14.1799 173.51 13.4074L173.425 13.356C172.18 12.6087 170.606 11.6637 168.526 11.0106Z" fill="#D8D355" stroke="#EEEBA3" stroke-width="7"/>
</svg>
