<svg width="1216" height="552" viewBox="0 0 1216 552" fill="none" xmlns="http://www.w3.org/2000/svg">
<mask id="path-1-inside-1_497_112" fill="white">
<path fill-rule="evenodd" clip-rule="evenodd" d="M0.363281 52.0391C0.363281 61.2091 3.43981 69.8252 8.84051 77.3072C11.3789 80.8239 11.3789 85.7013 8.84051 89.218C3.43981 96.7001 0.363281 105.316 0.363281 114.486C0.363281 126.176 5.36277 136.965 13.8032 145.653C17.6744 149.637 17.6744 156.43 13.8032 160.414C5.36277 169.102 0.363281 179.891 0.363281 191.581C0.363281 203.271 5.36277 214.06 13.8032 222.748C17.6744 226.732 17.6744 233.525 13.8032 237.509C5.36277 246.197 0.363281 256.986 0.363281 268.676C0.363281 280.366 5.36284 291.155 13.8034 299.843C17.6746 303.827 17.6746 310.62 13.8034 314.604C5.36283 323.292 0.363281 334.081 0.363281 345.771C0.363281 357.461 5.36278 368.25 13.8032 376.938C17.6744 380.922 17.6744 387.715 13.8032 391.699C5.36278 400.387 0.363281 411.176 0.363281 422.866C0.363281 434.556 5.36278 445.345 13.8032 454.033C17.6744 458.017 17.6744 464.81 13.8032 468.794C5.36278 477.482 0.363281 488.271 0.363281 499.961C0.363281 528.701 30.5841 552 67.8633 552C88.9403 552 107.761 544.552 120.139 532.884C124.28 528.981 131.447 528.981 135.587 532.884C147.966 544.552 166.786 552 187.863 552C208.94 552 227.761 544.552 240.139 532.884C244.28 528.981 251.447 528.981 255.587 532.884C267.966 544.552 286.786 552 307.863 552C328.94 552 347.761 544.552 360.139 532.884C364.28 528.981 371.447 528.981 375.587 532.884C387.966 544.552 406.786 552 427.863 552C448.94 552 467.761 544.552 480.139 532.884C484.28 528.981 491.447 528.981 495.587 532.884C507.966 544.552 526.786 552 547.863 552C568.94 552 587.761 544.552 600.139 532.885C604.28 528.981 611.447 528.981 615.587 532.885C627.966 544.552 646.786 552 667.863 552C688.94 552 707.761 544.552 720.139 532.885C724.28 528.981 731.447 528.981 735.587 532.885C747.966 544.552 766.786 552 787.863 552C808.94 552 827.761 544.552 840.139 532.885C844.28 528.981 851.447 528.981 855.587 532.885C867.966 544.552 886.786 552 907.863 552C928.94 552 947.761 544.552 960.139 532.885C964.28 528.981 971.447 528.981 975.587 532.885C987.966 544.552 1006.79 552 1027.86 552C1048.94 552 1067.76 544.552 1080.14 532.884C1084.28 528.981 1091.45 528.981 1095.59 532.884C1107.97 544.552 1126.79 552 1147.86 552C1185.14 552 1215.36 528.701 1215.36 499.961C1215.36 484.769 1206.92 471.097 1193.45 461.583C1193.4 461.544 1193.36 461.481 1193.36 461.413C1193.36 461.346 1193.4 461.283 1193.45 461.244C1206.92 451.73 1215.36 438.058 1215.36 422.866C1215.36 407.674 1206.92 394.002 1193.45 384.488C1193.4 384.449 1193.36 384.386 1193.36 384.319C1193.36 384.251 1193.4 384.188 1193.45 384.149C1206.92 374.635 1215.36 360.963 1215.36 345.771C1215.36 330.579 1206.92 316.907 1193.45 307.394C1193.4 307.355 1193.36 307.291 1193.36 307.224C1193.36 307.156 1193.4 307.092 1193.45 307.053C1206.92 297.54 1215.36 283.868 1215.36 268.676C1215.36 253.484 1206.92 239.812 1193.45 230.298C1193.4 230.259 1193.36 230.196 1193.36 230.128C1193.36 230.061 1193.4 229.998 1193.45 229.959C1206.92 220.445 1215.36 206.773 1215.36 191.581C1215.36 176.389 1206.92 162.717 1193.45 153.203C1193.4 153.164 1193.36 153.101 1193.36 153.034C1193.36 152.966 1193.4 152.903 1193.45 152.864C1206.92 143.35 1215.36 129.678 1215.36 114.486C1215.36 105.316 1212.29 96.7001 1206.89 89.2181C1204.35 85.7014 1204.35 80.8239 1206.89 77.3072C1212.29 69.8251 1215.36 61.2091 1215.36 52.0391C1215.36 23.2987 1185.14 0 1147.86 0C1126.79 0 1107.97 7.44757 1095.59 19.1155C1091.45 23.0185 1084.28 23.0186 1080.14 19.1155C1067.76 7.44758 1048.94 0 1027.86 0C1006.79 0 987.966 7.44757 975.587 19.1155C971.447 23.0185 964.28 23.0185 960.139 19.1155C947.761 7.44757 928.94 0 907.863 0C886.786 0 867.966 7.44757 855.587 19.1155C851.447 23.0185 844.28 23.0185 840.139 19.1155C827.761 7.44757 808.94 0 787.863 0C766.786 0 747.966 7.44757 735.587 19.1155C731.447 23.0185 724.28 23.0185 720.139 19.1155C707.761 7.44757 688.94 0 667.863 0C646.786 0 627.966 7.44757 615.587 19.1155C611.447 23.0185 604.28 23.0185 600.139 19.1155C587.761 7.44757 568.94 0 547.863 0C526.786 0 507.966 7.44758 495.587 19.1155C491.447 23.0185 484.28 23.0186 480.139 19.1155C467.761 7.44758 448.94 0 427.863 0C406.786 0 387.966 7.44758 375.587 19.1155C371.447 23.0185 364.28 23.0186 360.139 19.1155C347.761 7.44758 328.94 0 307.863 0C286.786 0 267.966 7.44758 255.587 19.1155C251.447 23.0186 244.28 23.0186 240.139 19.1155C227.761 7.44758 208.94 0 187.863 0C166.786 0 147.966 7.44758 135.587 19.1155C131.447 23.0185 124.28 23.0186 120.139 19.1155C107.761 7.44758 88.9403 0 67.8633 0C30.5841 0 0.363281 23.2987 0.363281 52.0391Z"/>
</mask>
<path fill-rule="evenodd" clip-rule="evenodd" d="M0.363281 52.0391C0.363281 61.2091 3.43981 69.8252 8.84051 77.3072C11.3789 80.8239 11.3789 85.7013 8.84051 89.218C3.43981 96.7001 0.363281 105.316 0.363281 114.486C0.363281 126.176 5.36277 136.965 13.8032 145.653C17.6744 149.637 17.6744 156.43 13.8032 160.414C5.36277 169.102 0.363281 179.891 0.363281 191.581C0.363281 203.271 5.36277 214.06 13.8032 222.748C17.6744 226.732 17.6744 233.525 13.8032 237.509C5.36277 246.197 0.363281 256.986 0.363281 268.676C0.363281 280.366 5.36284 291.155 13.8034 299.843C17.6746 303.827 17.6746 310.62 13.8034 314.604C5.36283 323.292 0.363281 334.081 0.363281 345.771C0.363281 357.461 5.36278 368.25 13.8032 376.938C17.6744 380.922 17.6744 387.715 13.8032 391.699C5.36278 400.387 0.363281 411.176 0.363281 422.866C0.363281 434.556 5.36278 445.345 13.8032 454.033C17.6744 458.017 17.6744 464.81 13.8032 468.794C5.36278 477.482 0.363281 488.271 0.363281 499.961C0.363281 528.701 30.5841 552 67.8633 552C88.9403 552 107.761 544.552 120.139 532.884C124.28 528.981 131.447 528.981 135.587 532.884C147.966 544.552 166.786 552 187.863 552C208.94 552 227.761 544.552 240.139 532.884C244.28 528.981 251.447 528.981 255.587 532.884C267.966 544.552 286.786 552 307.863 552C328.94 552 347.761 544.552 360.139 532.884C364.28 528.981 371.447 528.981 375.587 532.884C387.966 544.552 406.786 552 427.863 552C448.94 552 467.761 544.552 480.139 532.884C484.28 528.981 491.447 528.981 495.587 532.884C507.966 544.552 526.786 552 547.863 552C568.94 552 587.761 544.552 600.139 532.885C604.28 528.981 611.447 528.981 615.587 532.885C627.966 544.552 646.786 552 667.863 552C688.94 552 707.761 544.552 720.139 532.885C724.28 528.981 731.447 528.981 735.587 532.885C747.966 544.552 766.786 552 787.863 552C808.94 552 827.761 544.552 840.139 532.885C844.28 528.981 851.447 528.981 855.587 532.885C867.966 544.552 886.786 552 907.863 552C928.94 552 947.761 544.552 960.139 532.885C964.28 528.981 971.447 528.981 975.587 532.885C987.966 544.552 1006.79 552 1027.86 552C1048.94 552 1067.76 544.552 1080.14 532.884C1084.28 528.981 1091.45 528.981 1095.59 532.884C1107.97 544.552 1126.79 552 1147.86 552C1185.14 552 1215.36 528.701 1215.36 499.961C1215.36 484.769 1206.92 471.097 1193.45 461.583C1193.4 461.544 1193.36 461.481 1193.36 461.413C1193.36 461.346 1193.4 461.283 1193.45 461.244C1206.92 451.73 1215.36 438.058 1215.36 422.866C1215.36 407.674 1206.92 394.002 1193.45 384.488C1193.4 384.449 1193.36 384.386 1193.36 384.319C1193.36 384.251 1193.4 384.188 1193.45 384.149C1206.92 374.635 1215.36 360.963 1215.36 345.771C1215.36 330.579 1206.92 316.907 1193.45 307.394C1193.4 307.355 1193.36 307.291 1193.36 307.224C1193.36 307.156 1193.4 307.092 1193.45 307.053C1206.92 297.54 1215.36 283.868 1215.36 268.676C1215.36 253.484 1206.92 239.812 1193.45 230.298C1193.4 230.259 1193.36 230.196 1193.36 230.128C1193.36 230.061 1193.4 229.998 1193.45 229.959C1206.92 220.445 1215.36 206.773 1215.36 191.581C1215.36 176.389 1206.92 162.717 1193.45 153.203C1193.4 153.164 1193.36 153.101 1193.36 153.034C1193.36 152.966 1193.4 152.903 1193.45 152.864C1206.92 143.35 1215.36 129.678 1215.36 114.486C1215.36 105.316 1212.29 96.7001 1206.89 89.2181C1204.35 85.7014 1204.35 80.8239 1206.89 77.3072C1212.29 69.8251 1215.36 61.2091 1215.36 52.0391C1215.36 23.2987 1185.14 0 1147.86 0C1126.79 0 1107.97 7.44757 1095.59 19.1155C1091.45 23.0185 1084.28 23.0186 1080.14 19.1155C1067.76 7.44758 1048.94 0 1027.86 0C1006.79 0 987.966 7.44757 975.587 19.1155C971.447 23.0185 964.28 23.0185 960.139 19.1155C947.761 7.44757 928.94 0 907.863 0C886.786 0 867.966 7.44757 855.587 19.1155C851.447 23.0185 844.28 23.0185 840.139 19.1155C827.761 7.44757 808.94 0 787.863 0C766.786 0 747.966 7.44757 735.587 19.1155C731.447 23.0185 724.28 23.0185 720.139 19.1155C707.761 7.44757 688.94 0 667.863 0C646.786 0 627.966 7.44757 615.587 19.1155C611.447 23.0185 604.28 23.0185 600.139 19.1155C587.761 7.44757 568.94 0 547.863 0C526.786 0 507.966 7.44758 495.587 19.1155C491.447 23.0185 484.28 23.0186 480.139 19.1155C467.761 7.44758 448.94 0 427.863 0C406.786 0 387.966 7.44758 375.587 19.1155C371.447 23.0185 364.28 23.0186 360.139 19.1155C347.761 7.44758 328.94 0 307.863 0C286.786 0 267.966 7.44758 255.587 19.1155C251.447 23.0186 244.28 23.0186 240.139 19.1155C227.761 7.44758 208.94 0 187.863 0C166.786 0 147.966 7.44758 135.587 19.1155C131.447 23.0185 124.28 23.0186 120.139 19.1155C107.761 7.44758 88.9403 0 67.8633 0C30.5841 0 0.363281 23.2987 0.363281 52.0391Z" fill="#92C054"/>
<path d="M615.587 19.1155L624.504 28.5753L615.587 19.1155ZM600.139 19.1155L591.222 28.5753L600.139 19.1155ZM735.587 19.1155L744.504 28.5753L735.587 19.1155ZM720.139 19.1155L711.222 28.5753L720.139 19.1155ZM855.587 19.1155L864.504 28.5753L855.587 19.1155ZM840.139 19.1155L831.222 28.5753L840.139 19.1155ZM975.587 19.1155L984.504 28.5753L975.587 19.1155ZM960.139 19.1155L951.222 28.5753L960.139 19.1155ZM1095.59 19.1155L1086.67 9.65561L1095.59 19.1155ZM1080.14 19.1155L1089.06 9.65562L1080.14 19.1155ZM1206.89 89.2181L1196.35 96.8267L1206.89 89.2181ZM1206.89 77.3072L1196.35 69.6986L1206.89 77.3072ZM1193.45 152.864L1200.95 163.482L1193.45 152.864ZM1193.45 153.203L1200.95 142.585L1193.45 153.203ZM1193.45 230.298L1185.95 240.916L1193.45 230.298ZM1193.45 307.053L1185.95 296.435L1193.45 307.053ZM1193.45 384.488L1200.95 373.87L1193.45 384.488ZM1193.45 461.583L1200.95 450.965L1193.45 461.583ZM720.139 532.885L711.222 523.425L720.139 532.885ZM1193.45 229.959L1185.95 219.341L1193.45 229.959ZM135.587 19.1155L126.67 9.65562L135.587 19.1155ZM495.587 532.884L504.504 523.425L495.587 532.884ZM13.8032 376.938L4.47915 385.997L13.8032 376.938ZM13.8032 391.699L23.1273 400.758L13.8032 391.699ZM255.587 19.1155L246.67 9.65562L255.587 19.1155ZM240.139 19.1155L231.222 28.5753L240.139 19.1155ZM375.587 532.884L366.67 542.344L375.587 532.884ZM1080.14 532.884L1089.06 542.344L1080.14 532.884ZM1095.59 532.884L1086.67 542.344L1095.59 532.884ZM13.8034 299.843L23.1275 290.784L13.8034 299.843ZM13.8034 314.604L23.1274 323.663L13.8034 314.604ZM1193.45 384.149L1200.95 394.767L1193.45 384.149ZM495.587 19.1155L486.67 9.65562L495.587 19.1155ZM480.139 19.1155L489.056 9.65563L480.139 19.1155ZM120.139 532.884L129.056 542.344L120.139 532.884ZM135.587 532.884L126.67 542.344L135.587 532.884ZM840.139 532.885L831.222 523.425L840.139 532.885ZM13.8032 145.653L4.47913 154.712L13.8032 145.653ZM13.8032 160.414L4.47913 151.355L13.8032 160.414ZM1193.45 307.394L1200.95 296.776L1193.45 307.394ZM375.587 19.1155L366.67 9.65562L375.587 19.1155ZM360.139 19.1155L369.056 9.65563L360.139 19.1155ZM240.139 532.884L249.056 542.344L240.139 532.884ZM255.587 532.884L264.504 523.425L255.587 532.884ZM960.139 532.885L951.222 523.425L960.139 532.885ZM13.8032 222.748L4.47912 231.807L13.8032 222.748ZM600.139 532.885L591.222 523.425L600.139 532.885ZM1193.45 461.244L1200.95 471.862L1193.45 461.244ZM13.8032 454.033L4.47915 463.092L13.8032 454.033ZM13.8032 468.794L23.1273 477.853L13.8032 468.794ZM19.3813 69.6986C15.4045 64.1892 13.3633 58.1932 13.3633 52.0391H-12.6367C-12.6367 64.225 -8.52491 75.4611 -1.70032 84.9158L19.3813 69.6986ZM13.3633 114.486C13.3633 108.332 15.4045 102.336 19.3813 96.8266L-1.70032 81.6094C-8.52491 91.0641 -12.6367 102.3 -12.6367 114.486H13.3633ZM23.1273 136.594C16.6583 129.936 13.3633 122.277 13.3633 114.486H-12.6367C-12.6367 130.075 -5.93273 143.995 4.47913 154.712L23.1273 136.594ZM13.3633 191.581C13.3633 183.79 16.6583 176.131 23.1273 169.473L4.47913 151.355C-5.93273 162.072 -12.6367 175.992 -12.6367 191.581H13.3633ZM23.1273 213.689C16.6583 207.031 13.3633 199.372 13.3633 191.581H-12.6367C-12.6367 207.17 -5.93273 221.09 4.47912 231.807L23.1273 213.689ZM13.3633 268.676C13.3633 260.885 16.6583 253.226 23.1273 246.568L4.47913 228.45C-5.93273 239.167 -12.6367 253.087 -12.6367 268.676H13.3633ZM23.1275 290.784C16.6583 284.125 13.3633 276.467 13.3633 268.676H-12.6367C-12.6367 284.265 -5.93264 298.185 4.47934 308.902L23.1275 290.784ZM13.3633 345.771C13.3633 337.98 16.6583 330.322 23.1274 323.663L4.47934 305.545C-5.93264 316.262 -12.6367 330.182 -12.6367 345.771H13.3633ZM23.1273 367.879C16.6583 361.221 13.3633 353.562 13.3633 345.771H-12.6367C-12.6367 361.36 -5.93272 375.28 4.47915 385.997L23.1273 367.879ZM13.3633 422.866C13.3633 415.075 16.6583 407.416 23.1273 400.758L4.47915 382.64C-5.93271 393.357 -12.6367 407.277 -12.6367 422.866H13.3633ZM23.1273 444.974C16.6583 438.316 13.3633 430.657 13.3633 422.866H-12.6367C-12.6367 438.455 -5.93272 452.375 4.47915 463.092L23.1273 444.974ZM13.3633 499.961C13.3633 492.17 16.6583 484.511 23.1273 477.853L4.47915 459.735C-5.93271 470.452 -12.6367 484.372 -12.6367 499.961H13.3633ZM67.8633 539C34.417 539 13.3633 518.58 13.3633 499.961H-12.6367C-12.6367 538.823 26.7511 565 67.8633 565V539ZM111.222 523.425C101.526 532.565 86.015 539 67.8633 539V565C91.8656 565 113.996 556.54 129.056 542.344L111.222 523.425ZM187.863 539C169.712 539 154.201 532.565 144.504 523.425L126.67 542.344C141.73 556.54 163.861 565 187.863 565V539ZM231.222 523.425C221.526 532.565 206.015 539 187.863 539V565C211.866 565 233.996 556.54 249.056 542.344L231.222 523.425ZM307.863 539C289.712 539 274.201 532.565 264.504 523.425L246.67 542.344C261.73 556.54 283.861 565 307.863 565V539ZM351.222 523.425C341.526 532.565 326.015 539 307.863 539V565C331.866 565 353.996 556.54 369.056 542.344L351.222 523.425ZM427.863 539C409.712 539 394.201 532.565 384.504 523.425L366.67 542.344C381.73 556.54 403.861 565 427.863 565V539ZM471.222 523.425C461.526 532.565 446.015 539 427.863 539V565C451.866 565 473.996 556.54 489.056 542.344L471.222 523.425ZM547.863 539C529.712 539 514.201 532.565 504.504 523.425L486.67 542.344C501.73 556.54 523.861 565 547.863 565V539ZM591.222 523.425C581.526 532.565 566.015 539 547.863 539V565C571.866 565 593.996 556.54 609.056 542.344L591.222 523.425ZM667.863 539C649.712 539 634.201 532.565 624.504 523.425L606.67 542.344C621.73 556.54 643.861 565 667.863 565V539ZM711.222 523.425C701.526 532.565 686.015 539 667.863 539V565C691.866 565 713.996 556.54 729.056 542.344L711.222 523.425ZM787.863 539C769.712 539 754.201 532.565 744.504 523.425L726.67 542.344C741.73 556.54 763.861 565 787.863 565V539ZM831.222 523.425C821.526 532.565 806.015 539 787.863 539V565C811.866 565 833.996 556.54 849.056 542.344L831.222 523.425ZM907.863 539C889.712 539 874.201 532.565 864.504 523.425L846.67 542.344C861.73 556.54 883.861 565 907.863 565V539ZM951.222 523.425C941.526 532.565 926.015 539 907.863 539V565C931.866 565 953.996 556.54 969.056 542.344L951.222 523.425ZM1027.86 539C1009.71 539 994.201 532.565 984.504 523.425L966.67 542.344C981.73 556.54 1003.86 565 1027.86 565V539ZM1071.22 523.425C1061.53 532.565 1046.01 539 1027.86 539V565C1051.87 565 1074 556.54 1089.06 542.344L1071.22 523.425ZM1147.86 539C1129.71 539 1114.2 532.565 1104.5 523.425L1086.67 542.344C1101.73 556.54 1123.86 565 1147.86 565V539ZM1202.36 499.961C1202.36 518.58 1181.31 539 1147.86 539V565C1188.98 565 1228.36 538.823 1228.36 499.961H1202.36ZM1185.95 472.201C1196.81 479.87 1202.36 489.921 1202.36 499.961H1228.36C1228.36 479.616 1217.03 462.324 1200.95 450.965L1185.95 472.201ZM1202.36 422.866C1202.36 432.906 1196.81 442.957 1185.95 450.626L1200.95 471.862C1217.03 460.503 1228.36 443.211 1228.36 422.866H1202.36ZM1185.95 395.106C1196.81 402.775 1202.36 412.826 1202.36 422.866H1228.36C1228.36 402.521 1217.03 385.229 1200.95 373.87L1185.95 395.106ZM1202.36 345.771C1202.36 355.811 1196.81 365.862 1185.95 373.531L1200.95 394.767C1217.03 383.408 1228.36 366.116 1228.36 345.771H1202.36ZM1185.95 318.011C1196.81 325.68 1202.36 335.732 1202.36 345.771H1228.36C1228.36 325.426 1217.03 308.134 1200.95 296.776L1185.95 318.011ZM1202.36 268.676C1202.36 278.715 1196.81 288.767 1185.95 296.435L1200.95 317.671C1217.03 306.313 1228.36 289.021 1228.36 268.676H1202.36ZM1185.95 240.916C1196.81 248.585 1202.36 258.636 1202.36 268.676H1228.36C1228.36 248.331 1217.03 231.039 1200.95 219.68L1185.95 240.916ZM1202.36 191.581C1202.36 201.621 1196.81 211.672 1185.95 219.341L1200.95 240.577C1217.03 229.218 1228.36 211.926 1228.36 191.581H1202.36ZM1185.95 163.821C1196.81 171.49 1202.36 181.541 1202.36 191.581H1228.36C1228.36 171.236 1217.03 153.944 1200.95 142.585L1185.95 163.821ZM1202.36 114.486C1202.36 124.526 1196.81 134.577 1185.95 142.246L1200.95 163.482C1217.03 152.123 1228.36 134.831 1228.36 114.486H1202.36ZM1196.35 96.8267C1200.32 102.336 1202.36 108.332 1202.36 114.486H1228.36C1228.36 102.3 1224.25 91.0642 1217.43 81.6095L1196.35 96.8267ZM1202.36 52.0391C1202.36 58.1933 1200.32 64.1892 1196.35 69.6986L1217.43 84.9158C1224.25 75.4611 1228.36 64.225 1228.36 52.0391H1202.36ZM1147.86 13C1181.31 13 1202.36 33.4202 1202.36 52.0391H1228.36C1228.36 13.1772 1188.98 -13 1147.86 -13V13ZM1104.5 28.5753C1114.2 19.4351 1129.71 13 1147.86 13V-13C1123.86 -13 1101.73 -4.53995 1086.67 9.65561L1104.5 28.5753ZM1027.86 13C1046.01 13 1061.53 19.4351 1071.22 28.5753L1089.06 9.65562C1074 -4.53995 1051.87 -13 1027.86 -13V13ZM984.504 28.5753C994.201 19.4351 1009.71 13 1027.86 13V-13C1003.86 -13 981.73 -4.53995 966.67 9.65561L984.504 28.5753ZM907.863 13C926.015 13 941.526 19.4351 951.222 28.5753L969.056 9.6556C953.996 -4.53995 931.866 -13 907.863 -13V13ZM864.504 28.5753C874.201 19.4351 889.712 13 907.863 13V-13C883.861 -13 861.73 -4.53995 846.67 9.65561L864.504 28.5753ZM787.863 13C806.015 13 821.526 19.4351 831.222 28.5753L849.056 9.6556C833.996 -4.53995 811.866 -13 787.863 -13V13ZM744.504 28.5753C754.201 19.4351 769.712 13 787.863 13V-13C763.861 -13 741.73 -4.53995 726.67 9.65561L744.504 28.5753ZM667.863 13C686.015 13 701.526 19.4351 711.222 28.5753L729.056 9.6556C713.996 -4.53995 691.866 -13 667.863 -13V13ZM624.504 28.5753C634.201 19.4351 649.712 13 667.863 13V-13C643.861 -13 621.73 -4.53995 606.67 9.65561L624.504 28.5753ZM547.863 13C566.015 13 581.526 19.4351 591.222 28.5753L609.056 9.6556C593.996 -4.53995 571.866 -13 547.863 -13V13ZM504.504 28.5753C514.201 19.4351 529.712 13 547.863 13V-13C523.861 -13 501.73 -4.53995 486.67 9.65562L504.504 28.5753ZM427.863 13C446.015 13 461.526 19.4351 471.222 28.5753L489.056 9.65563C473.996 -4.53994 451.866 -13 427.863 -13V13ZM384.504 28.5753C394.201 19.4351 409.712 13 427.863 13V-13C403.861 -13 381.73 -4.53995 366.67 9.65562L384.504 28.5753ZM307.863 13C326.015 13 341.526 19.4351 351.222 28.5753L369.056 9.65563C353.996 -4.53994 331.866 -13 307.863 -13V13ZM264.504 28.5753C274.201 19.4351 289.712 13 307.863 13V-13C283.861 -13 261.73 -4.53994 246.67 9.65562L264.504 28.5753ZM187.863 13C206.015 13 221.526 19.4351 231.222 28.5753L249.056 9.65563C233.996 -4.53994 211.866 -13 187.863 -13V13ZM144.504 28.5753C154.201 19.4351 169.712 13 187.863 13V-13C163.861 -13 141.73 -4.53995 126.67 9.65562L144.504 28.5753ZM67.8633 13C86.015 13 101.526 19.4351 111.222 28.5753L129.056 9.65562C113.996 -4.53994 91.8656 -13 67.8633 -13V13ZM13.3633 52.0391C13.3633 33.4202 34.417 13 67.8633 13V-13C26.7511 -13 -12.6367 13.1772 -12.6367 52.0391H13.3633ZM606.67 9.65561C607.323 9.04037 607.828 9.04277 607.863 9.04277C607.898 9.04277 608.404 9.04037 609.056 9.6556L591.222 28.5753C600.371 37.1986 615.356 37.1986 624.504 28.5753L606.67 9.65561ZM726.67 9.65561C727.323 9.04037 727.828 9.04277 727.863 9.04277C727.898 9.04277 728.404 9.04037 729.056 9.6556L711.222 28.5753C720.371 37.1986 735.356 37.1986 744.504 28.5753L726.67 9.65561ZM846.67 9.65561C847.323 9.04037 847.828 9.04277 847.863 9.04277C847.898 9.04277 848.404 9.04037 849.056 9.6556L831.222 28.5753C840.371 37.1986 855.356 37.1986 864.504 28.5753L846.67 9.65561ZM966.67 9.65561C967.323 9.04037 967.828 9.04277 967.863 9.04277C967.898 9.04277 968.404 9.04037 969.056 9.6556L951.222 28.5753C960.371 37.1986 975.356 37.1986 984.504 28.5753L966.67 9.65561ZM1086.67 9.65561C1087.32 9.04038 1087.83 9.04278 1087.86 9.04278C1087.9 9.04278 1088.4 9.04038 1089.06 9.65562L1071.22 28.5753C1080.37 37.1986 1095.36 37.1986 1104.5 28.5753L1086.67 9.65561ZM1217.43 81.6095C1217.83 82.1724 1217.98 82.7638 1217.98 83.2626C1217.98 83.7614 1217.83 84.3529 1217.43 84.9158L1196.35 69.6986C1190.53 77.7578 1190.53 88.7674 1196.35 96.8267L1217.43 81.6095ZM1206.36 153.034C1206.36 157.223 1204.32 161.104 1200.95 163.482L1185.95 142.246C1182.47 144.701 1180.36 148.71 1180.36 153.034H1206.36ZM1200.95 142.585C1204.32 144.963 1206.36 148.845 1206.36 153.034H1180.36C1180.36 157.357 1182.47 161.366 1185.95 163.821L1200.95 142.585ZM1200.95 219.68C1204.32 222.058 1206.36 225.939 1206.36 230.128H1180.36C1180.36 234.452 1182.47 238.461 1185.95 240.916L1200.95 219.68ZM1206.36 307.224C1206.36 311.412 1204.32 315.294 1200.95 317.671L1185.95 296.435C1182.48 298.891 1180.36 302.899 1180.36 307.224H1206.36ZM1200.95 373.87C1204.32 376.248 1206.36 380.13 1206.36 384.319H1180.36C1180.36 388.642 1182.47 392.651 1185.95 395.106L1200.95 373.87ZM1200.95 450.965C1204.32 453.343 1206.36 457.224 1206.36 461.413H1180.36C1180.36 465.737 1182.47 469.746 1185.95 472.201L1200.95 450.965ZM729.056 542.344C728.404 542.96 727.898 542.957 727.863 542.957C727.828 542.957 727.323 542.96 726.67 542.344L744.504 523.425C735.356 514.801 720.371 514.801 711.222 523.425L729.056 542.344ZM1206.36 230.128C1206.36 234.317 1204.32 238.199 1200.95 240.577L1185.95 219.341C1182.47 221.796 1180.36 225.805 1180.36 230.128H1206.36ZM126.67 9.65562C127.323 9.04039 127.828 9.04278 127.863 9.04278C127.898 9.04278 128.404 9.04039 129.056 9.65562L111.222 28.5753C120.371 37.1986 135.356 37.1986 144.504 28.5753L126.67 9.65562ZM489.056 542.344C488.404 542.96 487.898 542.957 487.863 542.957C487.828 542.957 487.323 542.96 486.67 542.344L504.504 523.425C495.356 514.801 480.371 514.801 471.222 523.425L489.056 542.344ZM4.47915 385.997C3.82014 385.318 3.7066 384.651 3.7066 384.319C3.7066 383.986 3.82014 383.319 4.47915 382.64L23.1273 400.758C31.8997 391.729 31.8997 376.908 23.1273 367.879L4.47915 385.997ZM246.67 9.65562C247.323 9.04039 247.828 9.04278 247.863 9.04278C247.898 9.04278 248.404 9.04039 249.056 9.65563L231.222 28.5753C240.371 37.1986 255.356 37.1986 264.504 28.5753L246.67 9.65562ZM369.056 542.344C368.404 542.96 367.898 542.957 367.863 542.957C367.828 542.957 367.323 542.96 366.67 542.344L384.504 523.425C375.356 514.801 360.371 514.801 351.222 523.425L369.056 542.344ZM1089.06 542.344C1088.4 542.96 1087.9 542.957 1087.86 542.957C1087.83 542.957 1087.32 542.96 1086.67 542.344L1104.5 523.425C1095.36 514.801 1080.37 514.801 1071.22 523.425L1089.06 542.344ZM4.47934 308.902C3.82032 308.223 3.70678 307.556 3.70678 307.224C3.70678 306.891 3.82032 306.224 4.47934 305.545L23.1274 323.663C31.8999 314.634 31.8999 299.813 23.1275 290.784L4.47934 308.902ZM1206.36 384.319C1206.36 388.508 1204.32 392.389 1200.95 394.767L1185.95 373.531C1182.47 375.986 1180.36 379.995 1180.36 384.319H1206.36ZM486.67 9.65562C487.323 9.04039 487.828 9.04278 487.863 9.04278C487.898 9.04278 488.404 9.04039 489.056 9.65563L471.222 28.5753C480.371 37.1986 495.356 37.1986 504.504 28.5753L486.67 9.65562ZM129.056 542.344C128.404 542.96 127.898 542.957 127.863 542.957C127.828 542.957 127.323 542.96 126.67 542.344L144.504 523.425C135.356 514.801 120.371 514.801 111.222 523.425L129.056 542.344ZM849.056 542.344C848.404 542.96 847.898 542.957 847.863 542.957C847.828 542.957 847.323 542.96 846.67 542.344L864.504 523.425C855.356 514.801 840.371 514.801 831.222 523.425L849.056 542.344ZM4.47913 154.712C3.82012 154.033 3.70658 153.366 3.70658 153.034C3.70658 152.701 3.82012 152.034 4.47913 151.355L23.1273 169.473C31.8997 160.444 31.8997 145.623 23.1273 136.594L4.47913 154.712ZM1200.95 296.776C1204.32 299.153 1206.36 303.035 1206.36 307.224H1180.36C1180.36 311.548 1182.48 315.556 1185.95 318.011L1200.95 296.776ZM366.67 9.65562C367.323 9.04039 367.828 9.04278 367.863 9.04278C367.898 9.04278 368.404 9.04039 369.056 9.65563L351.222 28.5753C360.371 37.1986 375.356 37.1986 384.504 28.5753L366.67 9.65562ZM249.056 542.344C248.404 542.96 247.898 542.957 247.863 542.957C247.828 542.957 247.323 542.96 246.67 542.344L264.504 523.425C255.356 514.801 240.371 514.801 231.222 523.425L249.056 542.344ZM969.056 542.344C968.404 542.96 967.898 542.957 967.863 542.957C967.828 542.957 967.323 542.96 966.67 542.344L984.504 523.425C975.356 514.801 960.371 514.801 951.222 523.425L969.056 542.344ZM4.47912 231.807C3.82012 231.128 3.70658 230.461 3.70658 230.128C3.70658 229.796 3.82012 229.129 4.47913 228.45L23.1273 246.568C31.8997 237.539 31.8997 222.718 23.1273 213.689L4.47912 231.807ZM609.056 542.344C608.404 542.96 607.898 542.957 607.863 542.957C607.828 542.957 607.323 542.96 606.67 542.344L624.504 523.425C615.356 514.801 600.371 514.801 591.222 523.425L609.056 542.344ZM1206.36 461.413C1206.36 465.602 1204.32 469.484 1200.95 471.862L1185.95 450.626C1182.47 453.081 1180.36 457.09 1180.36 461.413H1206.36ZM4.47915 463.092C3.82014 462.413 3.7066 461.746 3.7066 461.413C3.7066 461.081 3.82014 460.414 4.47915 459.735L23.1273 477.853C31.8997 468.824 31.8997 454.003 23.1273 444.974L4.47915 463.092ZM-1.70032 84.9158C-2.10665 84.3529 -2.25566 83.7614 -2.25566 83.2626C-2.25566 82.7638 -2.10665 82.1724 -1.70032 81.6094L19.3813 96.8266C25.1987 88.7674 25.1987 77.7578 19.3813 69.6986L-1.70032 84.9158Z" fill="#CAF591" mask="url(#path-1-inside-1_497_112)"/>
</svg>
